<?xml version="1.0" encoding="UTF-8"?>
<svg viewBox="0 0 453 604" xmlns="http://www.w3.org/2000/svg">
 <g stroke="#000">
  <path d="m214.52 174.12s32.038-51.202 46.477-55.326c14.438-4.124 18.563 10.314 18.563 10.314l-36.908 45.012c-0.001007 0-29.232 26.448-28.132 0z"/>
  <path d="m228 182.74s101.68-74.25 194.5 30.938c92.814 105.19-74.251 340.32-129.94 340.32-55.688 0-64.559-37.125-64.559-37.125s-6.188 37.125-61.876 37.125-216.56-235.13-123.75-340.32c92.813-105.19 185.63-30.938 185.63-30.938z"/>
  <g stroke-width=".5">
   <path d="m279.56 129.11c-18.854 5.555-18.563-10.314-18.563-10.314s13.003-3.63 18.563 10.314z"/>
   <path d="m214.49 174.11s-51.464-19.215-55.588-31.59-10.312-40.223-7.219-51.564c3.095-11.342 54.477 8.859 61.876 27.104 8.25 20.336 0.931 56.05 0.931 56.05z"/>
   <g fill="none">
    <path d="m214.49 174.11s-33.14-63.942-48.371-70.263"/>
    <path d="m178.34 115.24s0.257-10.611 0-16.805"/>
    <line x1="187.05" x2="163.03" y1="127.27" y2="118.8"/>
    <line x1="197.22" x2="197.22" y1="143.35" y2="118.8"/>
   </g>
  </g>
 </g>
 <path d="m228 516.87c-65.946 74.238-203.88-157.68-203.87-157.67 2.654 13.568 12.384 37.726 17.64 49.676 34.194 76.405 95.389 145.12 124.36 145.12 55.69 6.1e-5 61.877-37.125 61.877-37.125z" opacity=".43"/>
 <path d="m229 182.92c0 105.08 68.716 202.01 166.45 202.01 12.692 0 23.721-0.74301 35.654-3.475 23.507-61.443 28.989-123.15-8.684-166.9-92.812-105.19-193.42-31.639-193.42-31.639z" opacity=".68"/>
 <path d="m227.26 201.82c1.52-7.009 2.202-12.206-1.285-18.88-23.053-16.846-94.974-54.093-169.64 16.701-0.008999 0.35701-0.076 0.705-0.076 1.061 0 33.869 38.477 57.93 85.892 57.93s77.98-23.019 85.114-56.812z"/>
</svg>
