<?xml version="1.0" encoding="utf-8"?>
<!-- Generator: Adobe Illustrator 15.1.0, SVG Export Plug-In . SVG Version: 6.00 Build 0)  -->
<!DOCTYPE svg PUBLIC "-//W3C//DTD SVG 1.1//EN" "http://www.w3.org/Graphics/SVG/1.1/DTD/svg11.dtd">
<svg version="1.1" id="Layer_1" xmlns="http://www.w3.org/2000/svg" xmlns:xlink="http://www.w3.org/1999/xlink" x="0px" y="0px"
	 width="612px" height="792px" viewBox="0 0 612 792" enable-background="new 0 0 612 792" xml:space="preserve">
<path fill-rule="evenodd" clip-rule="evenodd" stroke="#000000" stroke-width="3" stroke-linecap="round" stroke-linejoin="round" stroke-miterlimit="22.9256" d="
	M333.397,226.361c-11.635,1.781-22.521,2.766-33.325,2.955c-2.368-7.974-5.616-16.722-10.191-25.699
	c9.698,0.529,24.913-0.734,43.706-2.875c22.08-2.516,49.099-6.243,68.197-18.54c19.099-12.298,30.278-33.167,36.706-52.639
	c6.429-19.472,8.105-37.545,11.459-49.098c3.354-11.553,8.386-16.583,4.286-16.77c-4.099-0.187-17.328,4.472-36.893,7.733
	s-45.465,5.124-68.197,10.9c-22.732,5.776-42.297,15.465-55.899,29.533c-13.602,14.068-21.241,32.515-23.403,46.87
	c-0.736,4.885-0.837,9.295-0.567,13.271c-5.367-7.249-10.458-13.97-14.041-19.614c-7.454-11.739-8.385-18.82-10.993-16.118
	c-2.608,2.702-6.895,15.187-12.205,22.453c-5.311,7.267-11.646,9.316-6.522,13.323c5.125,4.006,21.708,9.968,33.819,19.099
	c12.111,9.13,19.751,21.428,22.546,31.583c0.6,2.18,0.976,4.26,1.176,6.232c-7.794-0.46-15.727-1.326-24.042-2.599
	c-35.31-5.403-58.601-17.143-89.346-15.931s-68.942,15.373-94.283,36.894c-25.341,21.521-37.825,50.402-44.253,87.668
	c-6.428,37.266-6.802,82.917,0.279,124.468c7.081,41.551,21.615,79.003,46.77,118.599c25.154,39.596,60.929,81.334,86.829,103.881
	s41.924,25.9,58.694,24.037c16.77-1.863,34.285-8.943,52.545-11.553c11.43-1.632,28.484-1.632,39.914,0
	c18.26,2.609,35.774,9.689,52.544,11.553c16.771,1.863,32.794-1.49,58.694-24.037s61.675-64.285,86.829-103.881
	c25.155-39.596,39.689-77.048,46.77-118.599c7.081-41.551,6.708-87.203,0.279-124.468c-6.429-37.266-18.912-66.147-44.254-87.668
	c-25.34-21.521-63.538-35.682-94.282-36.894C391.998,209.219,368.707,220.958,333.397,226.361z"/>
</svg>
