<?xml version="1.0" encoding="UTF-8" standalone="no"?>
<!-- Created with Inkscape (http://www.inkscape.org/) -->
<svg xmlns:inkscape="http://www.inkscape.org/namespaces/inkscape" xmlns:rdf="http://www.w3.org/1999/02/22-rdf-syntax-ns#" xmlns="http://www.w3.org/2000/svg" xmlns:xlink="http://www.w3.org/1999/xlink" xmlns:ns1="http://sozi.baierouge.fr" xmlns:cc="http://creativecommons.org/ns#" xmlns:sodipodi="http://sodipodi.sourceforge.net/DTD/sodipodi-0.dtd" xmlns:dc="http://purl.org/dc/elements/1.1/" id="svg2" xml:space="preserve" viewBox="0 0 178.26 211.27" version="1.1" inkscape:version="0.91 r13725">
  <defs id="defs6">
    <clipPath id="clipPath20">
      <path id="path22" d="m48 12.015h8v17h-8v-17z" inkscape:connector-curvature="0"/>
    </clipPath>
    <mask id="mask24">
      <g id="g26">
        <g id="g28" clip-path="url(#clipPath20)">
          <path id="path30" style="fill:#000000;fill-opacity:.39060" d="m48 12.015h8v17h-8v-17z" inkscape:connector-curvature="0"/>
        </g>
      </g>
    </mask>
    <clipPath id="clipPath36">
      <path id="path38" d="m48 12.015h8v17h-8v-17z" inkscape:connector-curvature="0"/>
    </clipPath>
    <clipPath id="clipPath40">
      <path id="path42" d="m48 13h8v17h-8v-17z" inkscape:connector-curvature="0"/>
    </clipPath>
    <linearGradient id="linearGradient138" y2="-19510" gradientUnits="userSpaceOnUse" x2="7441.8" gradientTransform="matrix(-.52856 -.60056 .60056 -.52856 15659 -5778.1)" y1="-19510" x1="7362.3">
      <stop id="stop140" style="stop-color:#ed421c" offset="0"/>
      <stop id="stop142" style="stop-color:#9e2c13" offset="1"/>
    </linearGradient>
    <clipPath id="clipPath152">
      <path id="path154" d="m3 85.015h57v34h-57v-34z" inkscape:connector-curvature="0"/>
    </clipPath>
    <mask id="mask156">
      <g id="g158">
        <g id="g160" clip-path="url(#clipPath152)">
          <path id="path162" style="fill:#000000;fill-opacity:.21090" d="m3 85.015h57v34h-57v-34z" inkscape:connector-curvature="0"/>
        </g>
      </g>
    </mask>
    <clipPath id="clipPath168">
      <path id="path170" d="m3 85.015h57v34h-57v-34z" inkscape:connector-curvature="0"/>
    </clipPath>
    <clipPath id="clipPath172">
      <path id="path174" d="m3 86h57v34h-57v-34z" inkscape:connector-curvature="0"/>
    </clipPath>
    <linearGradient id="linearGradient226" y2="-19540" gradientUnits="userSpaceOnUse" x2="7385.4" gradientTransform="matrix(-.52824 -.6008 .6008 -.52824 15659 -5773.3)" y1="-19540" x1="7380.5">
      <stop id="stop228" style="stop-color:#ede7dc" offset="0"/>
      <stop id="stop230" style="stop-color:#b8aa91" offset="1"/>
    </linearGradient>
    <linearGradient id="linearGradient244" y2="-19537" gradientUnits="userSpaceOnUse" x2="7379.8" gradientTransform="matrix(-.52728 -.6016 .6016 -.52728 15659 -5759.2)" y1="-19537" x1="7374.2">
      <stop id="stop246" style="stop-color:#ede7dc" offset="0"/>
      <stop id="stop248" style="stop-color:#b8aa91" offset="1"/>
    </linearGradient>
    <linearGradient id="linearGradient262" y2="-19532" gradientUnits="userSpaceOnUse" x2="7399" gradientTransform="matrix(-.52864 -.60048 .60048 -.52864 15660 -5779.7)" y1="-19532" x1="7392.8">
      <stop id="stop264" style="stop-color:#ede7dc" offset="0"/>
      <stop id="stop266" style="stop-color:#b8aa91" offset="1"/>
    </linearGradient>
    <linearGradient id="linearGradient280" y2="-19434" gradientUnits="userSpaceOnUse" x2="6426.2" gradientTransform="matrix(-.47456 -.64408 .64408 -.47456 15574 -4988.9)" y1="-19434" x1="6420.9">
      <stop id="stop282" style="stop-color:#ede7dc" offset="0"/>
      <stop id="stop284" style="stop-color:#b8aa91" offset="1"/>
    </linearGradient>
    <linearGradient id="linearGradient298" y2="-19425" gradientUnits="userSpaceOnUse" x2="6416.5" gradientTransform="matrix(-.474 -.6444 .6444 -.474 15573 -4981.6)" y1="-19425" x1="6410">
      <stop id="stop300" style="stop-color:#ede7dc" offset="0"/>
      <stop id="stop302" style="stop-color:#b8aa91" offset="1"/>
    </linearGradient>
    <linearGradient id="linearGradient316" y2="-19438" gradientUnits="userSpaceOnUse" x2="6478.4" gradientTransform="matrix(-.47688 -.64232 .64232 -.47688 15579 -5021.1)" y1="-19438" x1="6473.3">
      <stop id="stop318" style="stop-color:#ede7dc" offset="0"/>
      <stop id="stop320" style="stop-color:#b8aa91" offset="1"/>
    </linearGradient>
    <linearGradient id="linearGradient334" y2="-19421" gradientUnits="userSpaceOnUse" x2="6434.7" gradientTransform="matrix(-.47568 -.6432 .6432 -.47568 15576 -5004.8)" y1="-19421" x1="6428">
      <stop id="stop336" style="stop-color:#ede7dc" offset="0"/>
      <stop id="stop338" style="stop-color:#b8aa91" offset="1"/>
    </linearGradient>
    <linearGradient id="linearGradient352" y2="-19435" gradientUnits="userSpaceOnUse" x2="6411.8" gradientTransform="matrix(-.47584 -.64312 .64312 -.47584 15577 -5006.5)" y1="-19435" x1="6407.9">
      <stop id="stop354" style="stop-color:#ede7dc" offset="0"/>
      <stop id="stop356" style="stop-color:#b8aa91" offset="1"/>
    </linearGradient>
    <linearGradient id="linearGradient370" y2="-19430" gradientUnits="userSpaceOnUse" x2="6400" gradientTransform="matrix(-.47488 -.64384 .64384 -.47488 15575 -4993.3)" y1="-19430" x1="6395.6">
      <stop id="stop372" style="stop-color:#ede7dc" offset="0"/>
      <stop id="stop374" style="stop-color:#b8aa91" offset="1"/>
    </linearGradient>
    <linearGradient id="linearGradient388" y2="-19416" gradientUnits="userSpaceOnUse" x2="6355.8" gradientTransform="matrix(-.47312 -.64512 .64512 -.47312 15571 -4968.4)" y1="-19416" x1="6353">
      <stop id="stop390" style="stop-color:#ede7dc" offset="0"/>
      <stop id="stop392" style="stop-color:#b8aa91" offset="1"/>
    </linearGradient>
    <linearGradient id="linearGradient406" y2="-19422" gradientUnits="userSpaceOnUse" x2="6402.1" gradientTransform="matrix(-.47488 -.64376 .64376 -.47488 15575 -4994.1)" y1="-19422" x1="6396.4">
      <stop id="stop408" style="stop-color:#ede7dc" offset="0"/>
      <stop id="stop410" style="stop-color:#b8aa91" offset="1"/>
    </linearGradient>
    <linearGradient id="linearGradient424" y2="-19412" gradientUnits="userSpaceOnUse" x2="6389.9" gradientTransform="matrix(-.47512 -.64368 .64368 -.47512 15575 -4996.3)" y1="-19412" x1="6386">
      <stop id="stop426" style="stop-color:#ede7dc" offset="0"/>
      <stop id="stop428" style="stop-color:#b8aa91" offset="1"/>
    </linearGradient>
    <linearGradient id="linearGradient442" y2="-19392" gradientUnits="userSpaceOnUse" x2="6324.8" gradientTransform="matrix(-.47184 -.64608 .64608 -.47184 15568 -4950.7)" y1="-19392" x1="6322.1">
      <stop id="stop444" style="stop-color:#ede7dc" offset="0"/>
      <stop id="stop446" style="stop-color:#b8aa91" offset="1"/>
    </linearGradient>
    <clipPath id="clipPath458">
      <path id="path460" d="m26 15.015h38v26h-38v-26z" inkscape:connector-curvature="0"/>
    </clipPath>
    <mask id="mask462">
      <g id="g464">
        <g id="g466" clip-path="url(#clipPath458)">
          <path id="path468" style="fill:#000000;fill-opacity:.25" d="m26 15.015h38v26h-38v-26z" inkscape:connector-curvature="0"/>
        </g>
      </g>
    </mask>
    <clipPath id="clipPath474">
      <path id="path476" d="m26 15.015h38v26h-38v-26z" inkscape:connector-curvature="0"/>
    </clipPath>
    <clipPath id="clipPath478">
      <path id="path480" d="m26 16h38v26h-38v-26z" inkscape:connector-curvature="0"/>
    </clipPath>
    <clipPath id="clipPath514">
      <path id="path516" d="m38 31.015h19v27h-19v-27z" inkscape:connector-curvature="0"/>
    </clipPath>
    <mask id="mask518">
      <g id="g520">
        <g id="g522" clip-path="url(#clipPath514)">
          <path id="path524" style="fill:#000000;fill-opacity:.33980" d="m38 31.015h19v27h-19v-27z" inkscape:connector-curvature="0"/>
        </g>
      </g>
    </mask>
    <clipPath id="clipPath530">
      <path id="path532" d="m38 31.015h19v27h-19v-27z" inkscape:connector-curvature="0"/>
    </clipPath>
    <clipPath id="clipPath534">
      <path id="path536" d="m38 32h19v27h-19v-27z" inkscape:connector-curvature="0"/>
    </clipPath>
    <clipPath id="clipPath566">
      <path id="path568" d="m39 21.015h22v19h-22v-19z" inkscape:connector-curvature="0"/>
    </clipPath>
    <mask id="mask570">
      <g id="g572">
        <g id="g574" clip-path="url(#clipPath566)">
          <path id="path576" style="fill:#000000;fill-opacity:.46090" d="m39 21.015h22v19h-22v-19z" inkscape:connector-curvature="0"/>
        </g>
      </g>
    </mask>
    <clipPath id="clipPath582">
      <path id="path584" d="m39 21.015h22v19h-22v-19z" inkscape:connector-curvature="0"/>
    </clipPath>
    <clipPath id="clipPath586">
      <path id="path588" d="m39 22h22v19h-22v-19z" inkscape:connector-curvature="0"/>
    </clipPath>
    <clipPath id="clipPath616">
      <path id="path618" d="m29 9.0153h8v19h-8v-19z" inkscape:connector-curvature="0"/>
    </clipPath>
    <mask id="mask620">
      <g id="g622">
        <g id="g624" clip-path="url(#clipPath616)">
          <path id="path626" style="fill:#000000;fill-opacity:.25" d="m29 9.0153h8v19h-8v-19z" inkscape:connector-curvature="0"/>
        </g>
      </g>
    </mask>
    <clipPath id="clipPath632">
      <path id="path634" d="m29 9.0153h8v19h-8v-19z" inkscape:connector-curvature="0"/>
    </clipPath>
    <clipPath id="clipPath636">
      <path id="path638" d="m29 10h8v19h-8v-19z" inkscape:connector-curvature="0"/>
    </clipPath>
    <linearGradient id="linearGradient790" y2="-16184" gradientUnits="userSpaceOnUse" x2="85.985" gradientTransform="matrix(.000058932 -.8 .8 -.0008 13030 91.873)" y1="-16184" x1="72.41">
      <stop id="stop792" style="stop-color:#6b4119" offset="0"/>
      <stop id="stop794" style="stop-color:#a85e1b" offset="1"/>
    </linearGradient>
    <radialGradient id="radialGradient818" gradientUnits="userSpaceOnUse" cy="2009.2" cx="2631.7" gradientTransform="matrix(.76744 .22584 .22584 -.76744 -2390.2 1075.3)" r="68.567">
      <stop id="stop820" style="stop-color:#802f00" offset="0"/>
      <stop id="stop822" style="stop-color:#cc6d00" offset="1"/>
    </radialGradient>
    <linearGradient id="linearGradient860" y2="-18032" gradientUnits="userSpaceOnUse" x2="2271.7" gradientTransform="matrix(-.20408 -.77352 .77352 -.20408 14471 -1766.5)" y1="-18032" x1="2261.9">
      <stop id="stop862" style="stop-color:#ffda96" offset="0"/>
      <stop id="stop864" style="stop-color:#b88834" offset="1"/>
    </linearGradient>
    <linearGradient id="linearGradient878" y2="-18015" gradientUnits="userSpaceOnUse" x2="2266.2" gradientTransform="matrix(-.20344 -.77368 .77368 -.20344 14467 -1760.1)" y1="-18015" x1="2257.8">
      <stop id="stop880" style="stop-color:#ffda96" offset="0"/>
      <stop id="stop882" style="stop-color:#b88834" offset="1"/>
    </linearGradient>
    <linearGradient id="linearGradient896" y2="-18037" gradientUnits="userSpaceOnUse" x2="2292.3" gradientTransform="matrix(-.20416 -.77352 .77352 -.20416 14471 -1767.1)" y1="-18037" x1="2283.5">
      <stop id="stop898" style="stop-color:#ffda96" offset="0"/>
      <stop id="stop900" style="stop-color:#b88834" offset="1"/>
    </linearGradient>
    <linearGradient id="linearGradient914" y2="-18007" gradientUnits="userSpaceOnUse" x2="2241.8" gradientTransform="matrix(-.20288 -.77384 .77384 -.20288 14464 -1754.5)" y1="-18007" x1="2236">
      <stop id="stop916" style="stop-color:#ffda96" offset="0"/>
      <stop id="stop918" style="stop-color:#b88834" offset="1"/>
    </linearGradient>
    <linearGradient id="linearGradient932" y2="-17986" gradientUnits="userSpaceOnUse" x2="2250.8" gradientTransform="matrix(-.20304 -.77384 .77384 -.20304 14465 -1755.8)" y1="-17986" x1="2243.6">
      <stop id="stop934" style="stop-color:#ffda96" offset="0"/>
      <stop id="stop936" style="stop-color:#b88834" offset="1"/>
    </linearGradient>
    <linearGradient id="linearGradient950" y2="-17971" gradientUnits="userSpaceOnUse" x2="2243.9" gradientTransform="matrix(-.20328 -.77376 .77376 -.20328 14466 -1758.1)" y1="-17971" x1="2237.8">
      <stop id="stop952" style="stop-color:#ffda96" offset="0"/>
      <stop id="stop954" style="stop-color:#b88834" offset="1"/>
    </linearGradient>
    <linearGradient id="linearGradient968" y2="-17949" gradientUnits="userSpaceOnUse" x2="2252.7" gradientTransform="matrix(-.2036 -.77368 .77368 -.2036 14468 -1761.3)" y1="-17949" x1="2245.8">
      <stop id="stop970" style="stop-color:#ffda96" offset="0"/>
      <stop id="stop972" style="stop-color:#b88834" offset="1"/>
    </linearGradient>
    <linearGradient id="linearGradient986" y2="-17960" gradientUnits="userSpaceOnUse" x2="2245" gradientTransform="matrix(-.20248 -.77392 .77392 -.20248 14461 -1749.7)" y1="-17960" x1="2237.2">
      <stop id="stop988" style="stop-color:#ffda96" offset="0"/>
      <stop id="stop990" style="stop-color:#b88834" offset="1"/>
    </linearGradient>
    <linearGradient id="linearGradient1004" y2="-18045" gradientUnits="userSpaceOnUse" x2="2284" gradientTransform="matrix(-.2032 -.77376 .77376 -.2032 14466 -1757.4)" y1="-18045" x1="2276.3">
      <stop id="stop1006" style="stop-color:#ffda96" offset="0"/>
      <stop id="stop1008" style="stop-color:#b88834" offset="1"/>
    </linearGradient>
  </defs>
  <g id="g10" transform="matrix(1.25 0 0 -1.25 0 211.27)">
    <g id="g12">
      <path id="path14" style="fill-rule:evenodd;fill:#ffe2b8" d="m54.832 55.5c0.27-0.266 0.723-1.227 1.363-2.879 0.797-2.055 1.41-3.492 1.84-4.321 0.746-1.437 1.36-2.32 1.84-2.64 0.641-0.399 1.824-0.586 3.559-0.559 0.878 0.028 2.535 0.321 4.961 0.879 1.597 0.375 2.652 0.32 3.16-0.16 0.691-0.719 0.734-1.879 0.117-3.48-0.664-1.653-1.703-2.598-3.117-2.84-1.149-0.184-1.973 0-2.481 0.562-0.879 0.934-1.586 1.52-2.121 1.758-1.039 0.453-2.281 0.629-3.719 0.52l-1.8-0.317c-0.852 0.746-1.696 1.719-2.52 2.918-1.68 2.399-2.508 4.719-2.48 6.961 0.054 2.106 0.121 3.332 0.199 3.68 0.16 0.586 0.562 0.558 1.199-0.082z" inkscape:connector-curvature="0"/>
      <g id="g16">
        <g id="g32" mask="url(#mask24)">
          <g id="g44">
            <g id="g46" clip-path="url(#clipPath36)">
              <g id="g48" transform="translate(0 -.98466)">
                <g id="g52">
                  <g id="g54" clip-path="url(#clipPath40)">
                    <g id="g56">
                      <path id="path58" style="fill-rule:evenodd;fill:#000000" d="m50.312 21.566c-0.398 1.36-0.8 2.918-1.199 4.68-0.133 0.668-0.054 1.32 0.242 1.961 0.293 0.664 0.719 1.094 1.278 1.277-0.692-0.796-0.84-1.691-0.438-2.679 0.371-0.852 0.664-2.012 0.879-3.481 0.238-1.652 0.254-3.051 0.039-4.199 0-0.16 0.629 0.082 1.879 0.723 1.363 0.664 2.215 0.863 2.563 0.597 0.265-0.215 0.226-0.625-0.121-1.238-0.696-1.203-1.055-1.84-1.079-1.922-0.269-0.531-0.789-1.226-1.562-2.078-0.504-0.586-0.918-1.16-1.238-1.723-0.817-0.3-1.625-0.082-2.422 0.661-0.801 0.746-0.945 1.324-0.438 1.742 0.508 0.41 0.914 1.183 1.219 2.32 0.398 1.492 0.531 2.613 0.398 3.359z" inkscape:connector-curvature="0"/>
                    </g>
                  </g>
                </g>
              </g>
            </g>
          </g>
        </g>
      </g>
      <path id="path60" style="fill-rule:evenodd;fill:#40555e" d="m49.113 25.261c-0.347 1.625 0.133 2.696 1.442 3.2 1.386 0.535 2.746-0.532 4.078-3.2 1.414-2.855 1.336-5.812-0.238-8.878-0.266-0.512-0.719-1.118-1.36-1.821-0.644-0.703-1.086-1.301-1.32-1.801-0.238-0.503-0.91-0.437-2.02 0.2-1.109 0.64-1.5 1.23-1.183 1.761 0.629 0.508 1.093 1.34 1.402 2.5 0.398 1.493 0.531 2.614 0.398 3.36-0.398 1.359-0.8 2.918-1.199 4.679z" inkscape:connector-curvature="0"/>
      <path id="path62" style="fill-rule:evenodd;fill:#362815" d="m48.195 10.941c-1.093 1.199-1.507 2.067-1.242 2.602 0.109 0.211 0.309 0.414 0.602 0.597 0.375 0.16 0.668 0.321 0.879 0.481l0.16-0.481c0.215-0.343 0.613-0.613 1.199-0.8 0.801-0.266 1.613-0.25 2.441 0.043-0.027-0.133 0.016-0.254 0.121-0.36 0.211-0.16 1.118-0.535 2.719-1.121 1.442-0.586 2.094-1.094 1.961-1.519-0.187-0.614-0.746-1.122-1.68-1.52-1.066-0.508-2.226-0.602-3.48-0.281-1.309 0.32-2.535 1.105-3.68 2.359z" inkscape:connector-curvature="0"/>
      <path id="path64" style="fill-rule:evenodd;fill:#4d391e" d="m52.395 12.582 3.078-1.16c0.507-0.243 0.761-0.454 0.761-0.641 0-0.215-0.293-0.453-0.879-0.719-0.96-0.453-2-0.336-3.121 0.36-0.453 0.265-0.894 0.601-1.32 1-0.453 0.425-0.613 0.691-0.48 0.8 0.32 0.239 0.972 0.36 1.961 0.36z" inkscape:connector-curvature="0"/>
      <path id="path66" style="fill-rule:evenodd;fill:#a3280d" d="m36.836 61.14c0.266-0.425 0.184-1.066-0.242-1.918-0.453-0.961-1.172-1.613-2.16-1.961l-4.161-1.601c0.243 0.32 0.442 0.883 0.602 1.68 0.105 0.507 0.293 0.921 0.559 1.242l0.32 0.359c-0.692-0.293-1.531-0.547-2.52-0.762-1.945-0.476-3.625-0.597-5.039-0.359-1.386 0.215-2.679 1.148-3.879 2.801l-1.363 2.441 0.961-0.242c0.934-0.105 2.082-0.039 3.441 0.203 1.969 0.363 3.883 0.375 5.739 0.039-0.09 0.02-0.192 0.043-0.301 0.078-0.266 0.082-0.586 0.426-0.957 1.039l-0.481 0.922 0.481-0.199c0.48-0.133 1.094-0.199 1.84-0.199 0.613 0 1.492 0.012 2.64 0.039 1.012-0.055 1.852-0.293 2.52-0.719 1.066-0.723 1.73-1.683 2-2.883z" inkscape:connector-curvature="0"/>
      <path id="path68" style="fill-rule:evenodd;fill:#d43b1a" d="m21.395 62.3 2.64 0.321c1.945 0.242 3.348 0.347 4.199 0.32 1.387-0.051 2.961-0.414 4.719-1.078-0.105-0.027-0.504-0.027-1.199 0-0.961-0.109-1.824-0.203-2.598-0.281-1.468-0.133-2.789-0.149-3.961-0.039-1.226 0.132-2.226 0.293-3 0.48l-0.8 0.277z" inkscape:connector-curvature="0"/>
      <path id="path70" style="fill-rule:evenodd;fill:#d43b1a" d="m34.555 62.66 0.359-0.598-2.68 0.399c-0.586 0.082-1.093 0.214-1.519 0.402l-0.442 0.277 1.442 0.2c-1.465 0.054-2.426 0.148-2.879 0.281-0.297 0.082-0.547 0.281-0.762 0.601l-0.281 0.438 1.48-0.16c1.122-0.106 2.028-0.239 2.723-0.399 1.117-0.238 1.973-0.718 2.559-1.441z" inkscape:connector-curvature="0"/>
      <path id="path72" style="fill-rule:evenodd;fill:#d43b1a" d="m35.355 63.179c0.211-0.265 0.348-0.504 0.399-0.718 0.133-0.321 0.199-0.692 0.199-1.121-0.183 0-0.414 0.242-0.68 0.722-0.293 0.746-0.734 1.293-1.32 1.641-0.371 0.211-0.812 0.41-1.32 0.597l-0.637 0.2h0.68c0.531-0.024 0.957-0.117 1.277-0.278 0.481-0.242 0.801-0.562 0.961-0.961l0.16 0.282 0.281-0.364z" inkscape:connector-curvature="0"/>
      <path id="path74" style="fill-rule:evenodd;fill:#d43b1a" d="m32.754 61.422c0.746 0 1.359-0.149 1.84-0.442-0.586 0.11-1.227 0.067-1.918-0.117-0.321-0.082-0.934-0.348-1.84-0.801-0.961-0.48-1.695-0.789-2.203-0.922-0.586-0.16-1.36-0.226-2.317-0.199l-1.281 0.082 0.918 0.477c0.481 0.242 1.043 0.629 1.68 1.16-0.399-0.184-0.985-0.399-1.758-0.637-0.453-0.16-0.988-0.308-1.602-0.441l-0.8-0.16c-0.211 0-0.625 0.171-1.239 0.519-0.375 0.238-0.851 0.719-1.441 1.442l-0.797 1 1-0.36c0.797-0.297 1.531-0.523 2.199-0.683 1.254-0.293 3.106-0.332 5.559-0.118l4 0.2z" inkscape:connector-curvature="0"/>
      <path id="path76" style="fill-rule:evenodd;fill:#d43b1a" d="m34.516 59.863 0.437-0.082c-0.051-0.106-0.305-0.188-0.758-0.238l-1.402-0.403 0.84 0.121-0.957-0.718c-0.668-0.481-1.176-1.055-1.52-1.723 0.16 0.855 0.547 1.613 1.16 2.281 0.372 0.426 0.852 0.68 1.438 0.762 0.293 0.023 0.547 0.023 0.762 0z" inkscape:connector-curvature="0"/>
      <path id="path78" style="fill-rule:evenodd;fill:#d43b1a" d="m35.273 59.621c0.481 0.133 0.696 0 0.641-0.399-0.078-0.375-0.281-0.722-0.598-1.043-0.402-0.398-1.093-0.703-2.082-0.918-0.398-0.082-0.867-0.238-1.398-0.48l-0.68-0.32c0.504 0.668 0.957 1.199 1.36 1.601 0.238 0.238 0.597 0.481 1.078 0.719l0.601 0.281 0.16-0.32c0.106-0.242 0.184-0.563 0.239-0.961l0.121 0.281c0.051 0.133 0.066 0.387 0.039 0.758l-0.039 0.563 0.558 0.238z" inkscape:connector-curvature="0"/>
      <path id="path80" style="fill-rule:evenodd;fill:#c43717" d="m74.473 98.703c-3.547-3.574-7.891-5.457-13.039-5.641-4.586-0.187-9.985-1.015-16.2-2.48-5.761-1.52-9.16-2.387-10.199-2.602-1.387-0.293-3.976-0.238-7.762 0.16-3.574 0.348-5.625 0.68-6.16 1-0.453 0.266-0.254 2.121 0.602 5.563 0.824 3.437 1.531 5.32 2.117 5.637l24.203 11.921c5.813-0.695 10.934-1.464 15.36-2.32 4.585-0.851 7.492-1.625 8.718-2.32 0.774-0.426 1.535-0.664 2.282-0.719 0.613-0.027 1.332-0.348 2.16-0.961 0.879-0.613 1.105-1.613 0.679-3-0.402-1.387-1.32-2.801-2.761-4.238z" inkscape:connector-curvature="0"/>
      <path id="path82" style="fill-rule:evenodd;fill:#e6be82" d="m73.395 105.62c2.64-1.758 2.437-3.934-0.602-6.52-2.531-2.133-5.492-3.625-8.879-4.48-1.973-0.481-4.559-0.664-7.762-0.559-4.343 0.16-7.05 0.211-8.117 0.16-2.297-0.131-5.762-0.772-10.402-1.921-4.211-1.121-6.453-1.679-6.719-1.679-2.695 0.187-5.414 0.535-8.16 1.039-5.492 1.015-8.399 2.297-8.719 3.84-0.347 1.656 3.024 3.613 10.117 5.883 5.95 1.89 12.082 3.343 18.403 4.359 6.906 1.094 12.851 1.707 17.84 1.84 6.453 0.187 10.785-0.469 13-1.961z" inkscape:connector-curvature="0"/>
      <path id="path84" style="fill-rule:evenodd;fill:#c7a46b" d="m72.035 104.98c-0.32-0.371-0.801-0.812-1.441-1.32-1.305-1.012-2.762-1.879-4.36-2.598-1.601-0.722-3.293-1.293-5.082-1.722l-0.98-0.18 0.383 0.062c1.304 0.211 2.547 0.36 3.718 0.438 1.922 0.109 4.868 0.816 8.84 2.121-1.867-0.984-3.879-1.801-6.039-2.441-1.359-0.426-3.039-0.786-5.039-1.079l-2.562-0.32 5.882-0.078c2.106 0 4.094 0.25 5.957 0.758-0.398-0.215-0.972-0.453-1.718-0.719-1.52-0.508-3.133-0.84-4.84-1-1.707-0.187-3.348-0.148-4.922 0.121l-1.84 0.438 1.883-1.239c1.039-0.695 2.531-1.148 4.48-1.359-0.48-0.082-1.32-0.055-2.523 0.078-0.746 0.055-1.719 0.332-2.918 0.84l-1.559 0.762 1.598-2.121c-1.066 0.558-1.933 1.054-2.598 1.48-0.242 0.16-5.496-0.762-15.761-2.762-10.481-2.027-16.481-2.851-18-2.48-1.653 0.43 0.492 1.695 6.441 3.801 2.985 1.066 6.133 2.093 9.438 3.082-0.051 0.32-0.465 0.918-1.239 1.797-0.48 0.562-1.254 1.335-2.32 2.32l-1.441 1.363 1.16-0.32c0.746-0.215 2.508-1.641 5.281-4.281 0 0.773 0.078 1.492 0.238 2.16 0.11 0.398 0.508 1.371 1.203 2.918l0.957 2.203v-2.203c-0.05-0.746-0.386-2.106-1-4.078l4.68 5.48-0.277-0.723c-0.266-0.586-0.613-1.222-1.043-1.918-0.719-1.066-1.238-1.906-1.559-2.519l5.242 5.16-0.16-0.441c-0.187-0.453-0.523-1.094-1-1.918-0.746-1.309-1.457-2.27-2.121-2.883l7.52 6.203c-0.266-0.695-1-1.641-2.199-2.84-1.2-1.203-2.403-2.348-3.602-3.441l2.519 1.64c1.708 1.094 3.977 2.84 6.801 5.239-0.105-0.825-0.707-1.786-1.801-2.879-1.093-1.094-2.757-2.293-5-3.602l3.043 1.403c2 0.933 4.586 2.73 7.758 5.398-0.16-0.668-0.867-1.574-2.121-2.719-1.254-1.121-3.133-2.48-5.637-4.082l0.879 0.442c0.801 0.375 1.786 0.773 2.961 1.199 1.84 0.719 4.84 2.441 9 5.16-1.043-1.094-2.441-2.293-4.203-3.602-1.73-1.304-4.039-2.531-6.918-3.679l0.84 0.242c0.852 0.293 2.066 0.758 3.641 1.398 2.504 1.039 6.32 2.762 11.437 5.16-0.797-0.878-2.758-2.187-5.879-3.917-2.5-1.422-4.578-2.411-6.238-2.961l6 1.718c2.348 0.723 4.414 1.575 6.199 2.563 0.879 0.504 1.531 0.933 1.961 1.277z" inkscape:connector-curvature="0"/>
      <path id="path86" style="fill-rule:evenodd;fill:#e6be82" d="m45.195 100.02c0.024 0.078 0.106 0.09 0.239 0.039l-0.36-0.402 0.442 0.363c0.636-0.215 1.089-0.336 1.359-0.363l-0.082-0.078 0.121 0.078c0.16-0.024 0.934 0.094 2.32 0.363 0.746 0.078 1.801 0.024 3.161-0.16 0.746-0.109 1.757-0.254 3.039-0.441 1.519-0.188 2.304-0.68 2.359-1.481 0.055-0.48 0.066-0.746 0.039-0.801-0.16-0.293-0.703-0.519-1.637-0.679-1.414-0.266-8.695-1.012-21.84-2.239l1.04 1.039c0.398 0.399 2.144 1.282 5.238 2.641 2.988 1.332 4.508 2.039 4.562 2.121z" inkscape:connector-curvature="0"/>
      <path id="path88" style="fill-rule:evenodd;fill:#ffe2b8" d="m59.234 85.3c0.047-0.703-0.933-1.843-2.941-3.417-2.008-1.583-3.074-3.282-3.199-5.102-0.125-1.813 0.578-2.828 2.101-3.039 1.528-0.215 2.446-0.496 2.758-0.84-0.59-2.051-1.082-4.144-1.476-6.281-0.508-2.746-0.801-4.481-0.883-5.199-6.106-6.266-12.399-6.309-18.879-0.122-0.426 2-1.067 4.454-1.922 7.36-0.984 3.308-2.731 6.762-5.238 10.359l-3.442 4.364c0.43 1.679 1.375 3.519 2.84 5.519 2.934 4 6.988 6.785 12.16 8.359 5.414 1.653 9.68 2.094 12.801 1.321 1.574-0.403 2.602-0.961 3.082-1.68l0.879-2.641c0.555-2.035 0.961-4.328 1.219-6.878 0.035-0.395 0.07-0.797 0.101-1.204l0.039-0.879z" inkscape:connector-curvature="0"/>
      <path id="path90" style="fill-rule:evenodd;fill:#deb37c" d="m56.996 96.941 0.078-0.199c-1.226 0.719-2.691 1.066-4.398 1.039-1.547-0.055-3.789-0.441-6.723-1.16-3.094-0.774-5.586-2.133-7.476-4.078-1.442-1.469-2.415-3.11-2.922-4.922-0.614-2.078 0.785-6.481 4.199-13.199 1.281-2.563 2.082-5.973 2.402-10.243 0.168-2.254 0.196-4.48 0.078-6.679-0.019-0.532-1.851 0.687-5.5 3.66-0.414 2.035-1.062 4.535-1.941 7.5-0.984 3.308-2.731 6.762-5.238 10.359l-3.442 4.364c0.43 1.679 1.375 3.519 2.84 5.519 2.934 4 6.988 6.785 12.16 8.359 5.149 1.575 9.282 2.039 12.403 1.399 1.652-0.348 2.812-0.918 3.48-1.719z" inkscape:connector-curvature="0"/>
      <path id="path92" style="fill-rule:evenodd;fill:#b58b57" d="m41.113 97.261c6.774 2.106 11.696 2.305 14.762 0.598-1.625 0.457-3.535 0.535-5.719 0.242-1.281-0.187-3.441-0.668-6.48-1.441-2.856-0.719-5.188-2.145-7-4.277-1.199-1.415-2.442-3.602-3.723-6.563-1.144-2.559-2.785-4.16-4.918-4.801-0.719 0.989-1.254 1.684-1.601 2.082l-0.321 0.282c0.43 1.679 1.375 3.519 2.84 5.519 2.934 4 6.988 6.785 12.16 8.359z" inkscape:connector-curvature="0"/>
      <path id="path94" style="fill-rule:evenodd;fill:#ffe2b8" d="m62.355 82.621c-1.093-0.481-2.347-0.906-3.761-1.281-0.028-0.614-0.078-1.344-0.16-2.2h-2.079l-15.082 2.282c10.84 3.019 16.817 4.296 17.922 3.839 0.504-1.015 1.184-1.761 2.039-2.242 0.426-0.238 0.801-0.371 1.121-0.398z" inkscape:connector-curvature="0"/>
      <path id="path96" style="fill-rule:evenodd;fill:#ba9e76" d="m62.355 82.582c-0.375-0.215-1.613-0.614-3.722-1.199v-0.122l-8.879-1.519c-1.852-0.258-3.965-0.352-6.34-0.281-0.91 0.023-1.969 0.105-3.18 0.242-0.984 0.504-1.359 0.234-1.121-0.801-0.32 0.445-0.351 0.859-0.097 1.238 0.246 0.379 0.668 0.618 1.257 0.719-0.738-0.426-0.738-0.652 0-0.68 2.098 0.153 3.606 0.293 4.52 0.422 1.402 0.203 2.539 0.364 3.422 0.481 0.883 0.109 2.074 0.25 3.578 0.418 1.508 0.175 3.234 0.429 5.18 0.761 1.941 0.325 3.734 0.43 5.382 0.321z" inkscape:connector-curvature="0"/>
      <path id="path98" style="fill-rule:evenodd;fill:#ffe2b8" d="m61.793 77.019c-2.078-3.84-3.398-6.57-3.957-8.199-1.227-3.465-1.961-5.785-2.203-6.961-1.305 0.082-2.758 0.309-4.36 0.684-3.199 0.797-5.519 1.984-6.961 3.558-1.437 1.574-2.691 4.172-3.757 7.801l-1.039 6.02c0.48-0.028 1.808 0 3.98 0.078 2.172 0.082 4.399 0.336 6.68 0.761 2.281 0.426 4.953 0.852 8.019 1.282 3.067 0.429 5.133 0.593 6.2 0.5l1.519 0.078c-1.109-1.149-2.48-3.016-4.121-5.602z" inkscape:connector-curvature="0"/>
      <path id="path100" style="fill-rule:evenodd;fill:#fff5e6" d="m57.613 82.043c3.235 0.375 5.485 0.57 6.742 0.578l1.559 0.082-1.68-2.121 0.641 1.398c-0.766 0.012-2.52-0.121-5.262-0.398-2.734-0.278-5.551-0.633-8.437-1.063-2.895-0.422-5.321-0.668-7.281-0.738-1.957-0.07-3.446-0.031-4.461 0.121 1.738-0.035 3.468 0.043 5.179 0.238 1.711 0.203 3.5 0.477 5.36 0.821 1.863 0.343 4.41 0.703 7.64 1.082z" inkscape:connector-curvature="0"/>
      <path id="path102" style="fill-rule:evenodd;fill:#ebc592" d="m61.496 79.14c-0.465 0.18-2.285-0.222-5.461-1.199-2-0.641-4.652-1.027-7.961-1.16l-4.398-0.039 2.437 0.117c1.977 0.27 3.883 0.789 5.723 1.563 1.973 0.851 3.785 1.359 5.437 1.519 1.282 0.106 2.293 0 3.039-0.32l1.184-0.481z" inkscape:connector-curvature="0"/>
      <path id="path104" style="fill-rule:evenodd;fill:#fff0d6" d="m57.355 74.711c0.321 0 0.438-0.407 0.36-1.223-0.082-0.875-0.426-1.672-1.039-2.395-0.883-1.031-1.949-3.785-3.203-8.265 0 3.633 0.175 6.449 0.523 8.453 0.426 2.289 1.543 3.43 3.359 3.43z" inkscape:connector-curvature="0"/>
      <path id="path106" style="fill-rule:evenodd;fill:#fff5f5" d="m55.516 91.98c0.691 0.028 1.343-0.32 1.957-1.039 0.64-0.719 1.066-1.613 1.281-2.68 0.242-1.066 0.199-2.015-0.121-2.839-0.293-0.801-0.774-1.215-1.438-1.243-0.668-0.05-1.32 0.282-1.961 1-0.64 0.696-1.066 1.59-1.281 2.68-0.238 1.066-0.199 2.016 0.121 2.844 0.293 0.797 0.774 1.222 1.442 1.277z" inkscape:connector-curvature="0"/>
      <path id="path108" style="fill-rule:evenodd;fill:#292727" d="m58.273 85.422c-0.265-0.559-0.652-0.868-1.16-0.918-0.504-0.055-0.984 0.144-1.437 0.597-0.43 0.481-0.707 1.094-0.84 1.84-0.109 0.746-0.027 1.402 0.238 1.961 0.266 0.559 0.653 0.867 1.16 0.918 0.508 0.055 0.989-0.16 1.442-0.637 0.453-0.457 0.734-1.054 0.84-1.8 0.132-0.747 0.054-1.403-0.243-1.961z" inkscape:connector-curvature="0"/>
      <path id="path110" style="fill-rule:evenodd;fill:#fff5f5" d="m55.875 89.781c0.32 0.027 0.613-0.055 0.879-0.238 0.293-0.215 0.453-0.496 0.48-0.84 0.055-0.348-0.011-0.656-0.199-0.922-0.187-0.266-0.441-0.41-0.762-0.438-0.32-0.054-0.613 0.028-0.878 0.239-0.266 0.215-0.426 0.492-0.481 0.84-0.027 0.347 0.039 0.652 0.199 0.921 0.188 0.239 0.442 0.383 0.762 0.438z" inkscape:connector-curvature="0"/>
      <path id="path112" style="fill-rule:evenodd;fill:#8f5b59" d="m57.715 85.183c-0.481-0.508-0.961-0.496-1.442 0.039 0.375-0.082 0.747 0.055 1.122 0.399 0.32 0.293 0.546 0.656 0.679 1.082l0.082 0.597 0.078-0.718c0-0.559-0.172-1.028-0.519-1.399z" inkscape:connector-curvature="0"/>
      <path id="path114" style="fill-rule:evenodd;fill:#fff5f5" d="m40.113 91.5c1.336-0.133 2.426-0.707 3.282-1.719 0.878-1.012 1.265-2.172 1.16-3.481-0.106-1.332-0.68-2.425-1.719-3.281-1.043-0.851-2.227-1.211-3.563-1.078-1.332 0.106-2.437 0.668-3.32 1.68-0.851 1.039-1.226 2.215-1.117 3.519 0.133 1.336 0.703 2.414 1.719 3.243 1.039 0.851 2.226 1.226 3.558 1.117z" inkscape:connector-curvature="0"/>
      <path id="path116" style="fill-rule:evenodd;fill:#292727" d="m43.234 83.582c-0.695-0.668-1.519-1-2.48-1s-1.774 0.332-2.442 1c-0.691 0.64-1.039 1.426-1.039 2.359 0 0.934 0.348 1.734 1.039 2.402 0.668 0.665 1.481 1 2.442 1s1.785-0.335 2.48-1c0.668-0.668 1-1.468 1-2.402 0-0.933-0.332-1.719-1-2.359z" inkscape:connector-curvature="0"/>
      <path id="path118" style="fill-rule:evenodd;fill:#fff5f5" d="m41.156 86.023c-0.375-0.375-0.828-0.562-1.363-0.562-0.504 0-0.945 0.187-1.32 0.562-0.371 0.399-0.559 0.863-0.559 1.399 0 0.535 0.188 0.988 0.559 1.359 0.375 0.375 0.816 0.562 1.32 0.562 0.535 0 0.988-0.187 1.363-0.562 0.371-0.371 0.559-0.824 0.559-1.359 0-0.536-0.188-1-0.559-1.399z" inkscape:connector-curvature="0"/>
      <path id="path120" style="fill-rule:evenodd;fill:#8f5b59" d="m40.195 83.261-0.761 0.442c0.64-0.16 1.375-0.043 2.199 0.359 1.094 0.508 1.722 1.188 1.883 2.039l-0.043-0.961c-0.161-0.718-0.614-1.277-1.36-1.679-0.64-0.371-1.277-0.438-1.918-0.2z" inkscape:connector-curvature="0"/>
      <path id="path122" style="fill-rule:evenodd;fill:#ffe2b8" d="m38.395 92.023v0.18c0.421 0.094 0.863 0.14 1.32 0.14 1.574 0 2.894-0.535 3.961-1.601 1.117-1.094 1.679-2.442 1.679-4.039 0-1.547-0.562-2.867-1.679-3.961-0.406-0.426-0.848-0.774-1.321-1.039 0.321 0.219 0.629 0.484 0.918 0.801 1.122 1.089 1.68 2.41 1.68 3.957 0 1.601-0.558 2.949-1.68 4.043-1.066 1.066-2.386 1.597-3.961 1.597-0.312 0-0.617-0.027-0.917-0.078zm15.398-1.121c-0.293-1.039-0.254-2.254 0.121-3.641 0.348-1.332 0.922-2.425 1.719-3.281 0.601-0.562 1.183-0.875 1.742-0.937-0.68-0.075-1.395 0.238-2.141 0.937-0.8 0.856-1.375 1.949-1.718 3.281-0.375 1.387-0.414 2.602-0.121 3.641 0.347 1.094 0.906 1.746 1.679 1.961 0.242 0.062 0.481 0.082 0.719 0.059-0.105-0.012-0.215-0.032-0.32-0.059-0.774-0.215-1.332-0.867-1.68-1.961z" inkscape:connector-curvature="0"/>
      <path id="path124" style="fill-rule:evenodd;fill:#573e25" d="m50.793 83.461 0.641-0.481-1.2 0.281 0.243-0.121c0.132-0.05 0.293-0.16 0.476-0.32l-0.719 0.199-0.718 0.082 0.359-0.121 0.52-0.277c-0.426 0.105-1.028 0.199-1.801 0.277-0.852 0.055-1.84 0.039-2.961-0.039-1.543-0.105-2.731-0.32-3.559-0.641-0.453-0.187-1.359-0.691-2.719-1.519-1.093-0.668-2.027-1.066-2.8-1.199-2.453-0.375-3.774 0.332-3.961 2.121-0.078 0.746 0.199 1.316 0.84 1.719 0.613 0.371 1.199 0.398 1.761 0.078 0.641-0.348 0.825-0.774 0.559-1.278 0.027 0.078-0.039 0.278-0.199 0.598s-0.493 0.414-1 0.281c-0.535-0.105-0.813-0.386-0.84-0.84-0.055-0.48 0.094-0.894 0.441-1.242 0.371-0.344 0.934-0.543 1.68-0.597 0.613-0.028 1.344 0.214 2.199 0.718 1.813 1.094 2.746 1.653 2.801 1.68 2.211 1.148 4.598 1.613 7.16 1.402 0.664-0.027 1.32-0.187 1.957-0.48l-0.359 0.398 0.761-0.121c0.559-0.105 0.961-0.25 1.2-0.437l-0.399 0.039 0.16-0.078c0.106-0.055 0.227-0.188 0.36-0.403l-0.883 0.321z" inkscape:connector-curvature="0"/>
      <path id="path126" style="fill-rule:evenodd;fill:#573e25" d="m64.555 85.422c0.398-0.106 0.668-0.387 0.8-0.84 0.161-0.535 0.122-1-0.121-1.403-0.214-0.425-0.574-0.586-1.078-0.476-0.32 0.051-1.054 0.277-2.203 0.68-1.09 0.371-1.84 0.585-2.238 0.636-1.254 0.188-2.188 0.121-2.801-0.199l-1.277-0.758 0.16 0.399 0.117 0.121-0.359-0.121-0.442-0.321 0.364 0.481-0.403-0.199-0.48-0.36 0.32 0.399 0.121 0.082-0.762-0.282-0.078-0.082 0.2 0.243 0.121 0.078-0.321-0.117-0.121-0.083 0.199 0.36c0.188 0.187 0.403 0.348 0.641 0.48l0.359 0.2-0.32-0.438-0.117-0.121 0.879 0.602c0.828 0.371 1.789 0.531 2.879 0.476 0.988-0.078 2.121-0.359 3.402-0.84 1.172-0.476 1.891-0.719 2.16-0.719 0.504-0.027 0.758 0.266 0.758 0.879 0 0.59-0.211 0.895-0.641 0.922-0.343 0.028-0.531-0.093-0.558-0.359-0.027-0.16-0.012-0.309 0.039-0.442-0.399 0.266-0.453 0.559-0.16 0.879 0.242 0.243 0.562 0.321 0.961 0.243z" inkscape:connector-curvature="0"/>
      <g id="g128">
        <g id="g130">
          <g id="g136">
            <path id="path144" style="fill-rule:evenodd;fill:url(#linearGradient138)" d="m76.113 104.1c-0.801 0.879-2.375 1.653-4.718 2.321-4.696 1.359-10.895 1.535-18.602 0.519-4.055-0.535-8.41-3.215-13.078-8.039-3.707-3.812-6.961-8.215-9.762-13.199-2.105-3.762-4.906-6.348-8.398-7.762-2.856-1.121-6.082-1.453-9.68-1-4.828 0.641-8.27 1.856-10.32 3.641-1.817 1.597-2.039 2.894-0.68 3.879 3.547 2.586 5.957 5.172 7.238 7.761 1.336 3.653 2.895 7.118 4.68 10.399 2.855 5.254 5.562 9.176 8.121 11.762 2.934 2.957 6 4.585 9.199 4.878 4.746 0.426 12.961-1.039 24.641-4.398 11.574-3.309 18.801-6.215 21.68-8.723 0.828-0.746 1.027-1.304 0.601-1.679l-0.922-0.36z" inkscape:connector-curvature="0"/>
          </g>
        </g>
      </g>
      <path id="path146" style="fill-rule:evenodd;fill:#c43717" d="m76.113 104.1c-0.801 0.879-2.375 1.653-4.718 2.321-4.696 1.359-10.895 1.535-18.602 0.519-3.332-0.453-6.906-2.371-10.719-5.762 3.895 4.43 9.215 6.856 15.961 7.282 4.024 0.265 7.625 0.214 10.797-0.161 3.496-0.398 6.055-1.144 7.684-2.238 0.773-0.695 0.933-1.226 0.476-1.601l-0.879-0.36z" inkscape:connector-curvature="0"/>
      <g id="g148">
        <g id="g164" mask="url(#mask156)">
          <g id="g176">
            <g id="g178" clip-path="url(#clipPath168)">
              <g id="g180" transform="translate(0 -.98466)">
                <g id="g184">
                  <g id="g186" clip-path="url(#clipPath172)">
                    <g id="g188">
                      <path id="path190" style="fill-rule:evenodd;fill:#000000" d="m21.035 114.12 0.317-1.16c0-0.906-0.586-1.653-1.758-2.238-0.696-0.348-1.094-0.172-1.199 0.519-0.137 0.641 0.011 1.332 0.437 2.078 0.508 0.883 1.027 1.281 1.563 1.203 0.265-0.054 0.48-0.187 0.64-0.402z" inkscape:connector-curvature="0"/>
                      <path id="path192" style="fill-rule:evenodd;fill:#000000" d="m15.914 106.6c0.426-0.96 0.359-1.894-0.199-2.8-0.481-0.746-1.11-1.239-1.883-1.481-0.48-0.16-0.691 0.215-0.641 1.121 0.028 0.907 0.309 1.641 0.844 2.2 0.613 0.613 1.024 0.988 1.238 1.121 0.293 0.16 0.508 0.105 0.641-0.161z" inkscape:connector-curvature="0"/>
                      <path id="path194" style="fill-rule:evenodd;fill:#000000" d="m23.035 108.05c0.985-0.055 1.449-0.789 1.399-2.203-0.055-1.36-0.508-2.317-1.36-2.879-0.773-0.531-1.48-0.453-2.121 0.242-0.668 0.691-0.867 1.504-0.601 2.438 0.242 0.746 0.628 1.347 1.16 1.8 0.48 0.426 0.988 0.625 1.523 0.602z" inkscape:connector-curvature="0"/>
                      <path id="path196" style="fill-rule:evenodd;fill:#000000" d="m10.074 98.727c0.614-0.028 0.774-0.707 0.481-2.039-0.297-1.309-0.696-2.094-1.203-2.364-0.372-0.183-0.532-0.117-0.477 0.203 0.184 0.907 0.277 1.399 0.277 1.477 0.028 0.934 0.094 1.601 0.2 2 0.136 0.48 0.375 0.723 0.722 0.723z" inkscape:connector-curvature="0"/>
                      <path id="path198" style="fill-rule:evenodd;fill:#000000" d="m15.152 96.844c0.746-0.024 1.254-0.426 1.52-1.199 0.16-0.481 0.226-1.04 0.203-1.68-0.082-1.52-0.695-2.438-1.84-2.758-0.723-0.215-1.363 0.023-1.922 0.719-0.508 0.64-0.707 1.375-0.601 2.199 0.109 0.773 0.429 1.43 0.961 1.961 0.535 0.535 1.093 0.785 1.679 0.758z" inkscape:connector-curvature="0"/>
                      <path id="path200" style="fill-rule:evenodd;fill:#000000" d="m6.273 89.484c0.508-0.32 0.442-0.918-0.199-1.796-0.64-0.911-1.375-1.415-2.199-1.524-0.375-0.023-0.547 0.121-0.523 0.441 0.027 0.161 0.175 0.641 0.441 1.442 0.242 0.691 0.559 1.183 0.961 1.48 0.48 0.317 0.984 0.305 1.519-0.043z" inkscape:connector-curvature="0"/>
                      <path id="path202" style="fill-rule:evenodd;fill:#000000" d="m24.395 99.844c1.304 0.48 2.238 0.281 2.796-0.598 0.508-0.801 0.508-1.707 0-2.719-0.476-0.933-1.132-1.535-1.957-1.8-0.855-0.293-1.519-0.122-2 0.519-0.48 0.641-0.586 1.508-0.32 2.598 0.266 1.066 0.758 1.734 1.481 2z" inkscape:connector-curvature="0"/>
                      <path id="path204" style="fill-rule:evenodd;fill:#000000" d="m26.992 119.69c0.934 0.21 1.774 0.25 2.52 0.117 0.695-0.106 0.883-0.266 0.562-0.481-0.402-0.293-0.972-0.57-1.722-0.84-0.907-0.343-1.614-0.453-2.118-0.32-0.48 0.109-0.601 0.363-0.359 0.762 0.238 0.398 0.613 0.652 1.117 0.762z" inkscape:connector-curvature="0"/>
                      <path id="path206" style="fill-rule:evenodd;fill:#000000" d="m27.555 116.53c0.824 0.161 1.465 0 1.918-0.48 0.425-0.481 0.468-0.977 0.121-1.481-0.453-0.613-1.16-0.972-2.121-1.082-0.907-0.105-1.532 0-1.879 0.321-0.321 0.293-0.266 0.789 0.16 1.48 0.453 0.695 1.055 1.106 1.801 1.242z" inkscape:connector-curvature="0"/>
                      <path id="path208" style="fill-rule:evenodd;fill:#000000" d="m36.473 118.89c-0.348 0.425-0.121 0.718 0.679 0.879 0.723 0.132 1.375 0.093 1.961-0.121 1.145-0.481 1.762-0.747 1.84-0.801 0.586-0.344 0.426-0.625-0.48-0.84-0.559-0.133-1.348-0.066-2.36 0.203-0.906 0.211-1.453 0.438-1.64 0.68z" inkscape:connector-curvature="0"/>
                      <path id="path210" style="fill-rule:evenodd;fill:#000000" d="m31.352 112.73c1.226 0.371 2.242 0.226 3.043-0.442 0.796-0.613 1.011-1.32 0.64-2.121-0.347-0.719-0.988-1.199-1.922-1.437-0.879-0.243-1.668-0.188-2.359 0.16-0.613 0.343-0.828 1.023-0.641 2.039 0.16 0.961 0.575 1.558 1.239 1.801z" inkscape:connector-curvature="0"/>
                      <path id="path212" style="fill-rule:evenodd;fill:#000000" d="m44.953 116.48c1.227 0.028 2.238-0.277 3.039-0.918 0.746-0.586 0.961-1.015 0.641-1.281-0.375-0.32-0.985-0.519-1.84-0.597-0.852-0.055-1.668 0.039-2.441 0.277-0.852 0.265-1.239 0.746-1.161 1.441 0.082 0.692 0.668 1.055 1.762 1.078z" inkscape:connector-curvature="0"/>
                      <path id="path214" style="fill-rule:evenodd;fill:#000000" d="m55.555 115.77c0.933 0.054 1.863-0.227 2.797-0.84 0.933-0.614 1.093-1 0.48-1.16-0.773-0.239-1.68-0.215-2.719 0.078-0.746 0.187-1.398 0.468-1.961 0.844-0.343 0.21-0.332 0.453 0.039 0.718 0.348 0.215 0.801 0.332 1.364 0.36z" inkscape:connector-curvature="0"/>
                    </g>
                  </g>
                </g>
              </g>
            </g>
          </g>
        </g>
      </g>
      <g id="g216">
        <g id="g218">
          <g id="g224">
            <path id="path232" style="fill-rule:evenodd;fill:url(#linearGradient226)" d="m21.715 114.42 0.32-1.161c-0.027-0.878-0.629-1.613-1.801-2.199-0.695-0.347-1.254-0.176-1.679 0.52-0.426 0.718-0.442 1.426-0.039 2.121 0.504 0.906 1.183 1.293 2.039 1.16 0.453-0.055 0.84-0.203 1.16-0.441z" inkscape:connector-curvature="0"/>
          </g>
        </g>
      </g>
      <g id="g234">
        <g id="g236">
          <g id="g242">
            <path id="path250" style="fill-rule:evenodd;fill:url(#linearGradient244)" d="m16.555 106.94c0.425-0.961 0.359-1.894-0.2-2.801-0.48-0.746-1.109-1.25-1.882-1.519-0.481-0.16-0.868 0.242-1.161 1.199-0.265 0.988-0.144 1.75 0.36 2.281 0.508 0.559 1.094 0.922 1.762 1.078 0.613 0.161 0.988 0.082 1.121-0.238z" inkscape:connector-curvature="0"/>
          </g>
        </g>
      </g>
      <g id="g252">
        <g id="g254">
          <g id="g260">
            <path id="path268" style="fill-rule:evenodd;fill:url(#linearGradient262)" d="m23.434 108.1c0.988-0.054 1.441-0.785 1.359-2.199-0.055-1.359-0.492-2.32-1.32-2.879-0.774-0.535-1.493-0.453-2.161 0.238-0.664 0.692-0.851 1.508-0.558 2.442 0.238 0.746 0.629 1.344 1.16 1.797 0.481 0.429 0.984 0.629 1.52 0.601z" inkscape:connector-curvature="0"/>
          </g>
        </g>
      </g>
      <g id="g270">
        <g id="g272">
          <g id="g278">
            <path id="path286" style="fill-rule:evenodd;fill:url(#linearGradient280)" d="m10.715 99.062c0.64-0.027 0.812-0.707 0.519-2.039-0.293-1.308-0.707-2.094-1.242-2.363-0.453-0.238-0.785-0.184-1 0.16-0.211 0.32-0.304 0.816-0.277 1.48 0.023 0.801 0.277 1.481 0.758 2.04 0.402 0.48 0.816 0.722 1.242 0.722z" inkscape:connector-curvature="0"/>
          </g>
        </g>
      </g>
      <g id="g288">
        <g id="g290">
          <g id="g296">
            <path id="path304" style="fill-rule:evenodd;fill:url(#linearGradient298)" d="m15.473 97.062c0.746-0.027 1.254-0.429 1.519-1.199 0.215-0.508 0.281-1.066 0.203-1.684-0.082-1.519-0.695-2.437-1.84-2.757-0.722-0.215-1.363 0.027-1.921 0.718-0.508 0.641-0.707 1.375-0.602 2.2 0.109 0.773 0.43 1.429 0.961 1.96 0.535 0.536 1.094 0.79 1.68 0.762z" inkscape:connector-curvature="0"/>
          </g>
        </g>
      </g>
      <g id="g306">
        <g id="g308">
          <g id="g314">
            <path id="path322" style="fill-rule:evenodd;fill:url(#linearGradient316)" d="m6.914 89.82c0.535-0.32 0.481-0.918-0.16-1.797-0.641-0.91-1.387-1.414-2.238-1.523-0.856-0.133-1.067 0.414-0.641 1.64 0.211 0.668 0.625 1.188 1.238 1.563 0.641 0.426 1.242 0.465 1.801 0.117z" inkscape:connector-curvature="0"/>
          </g>
        </g>
      </g>
      <g id="g324">
        <g id="g326">
          <g id="g332">
            <path id="path340" style="fill-rule:evenodd;fill:url(#linearGradient334)" d="m24.875 99.98c1.305 0.453 2.238 0.242 2.797-0.64 0.508-0.825 0.508-1.731 0-2.719-0.477-0.906-1.133-1.508-1.957-1.801-0.828-0.293-1.481-0.117-1.961 0.52-0.508 0.64-0.625 1.507-0.359 2.601 0.265 1.067 0.757 1.746 1.48 2.039z" inkscape:connector-curvature="0"/>
          </g>
        </g>
      </g>
      <g id="g342">
        <g id="g344">
          <g id="g350">
            <path id="path358" style="fill-rule:evenodd;fill:url(#linearGradient352)" d="m27.672 120.02c0.883 0.184 1.617 0.024 2.203-0.48 0.531-0.481 0.613-0.856 0.238-1.121-0.32-0.243-0.824-0.426-1.519-0.559-0.746-0.16-1.387-0.176-1.922-0.043-0.477 0.137-0.559 0.508-0.238 1.121 0.293 0.586 0.707 0.945 1.238 1.082z" inkscape:connector-curvature="0"/>
          </g>
        </g>
      </g>
      <g id="g360">
        <g id="g362">
          <g id="g368">
            <path id="path376" style="fill-rule:evenodd;fill:url(#linearGradient370)" d="m27.715 116.1c0.801 0.16 1.437-0.011 1.918-0.519 0.426-0.453 0.469-0.934 0.121-1.442-0.348-0.48-0.973-0.773-1.879-0.879-0.883-0.105-1.48-0.015-1.801 0.282-0.32 0.293-0.32 0.746 0 1.359 0.375 0.641 0.918 1.039 1.641 1.199z" inkscape:connector-curvature="0"/>
          </g>
        </g>
      </g>
      <g id="g378">
        <g id="g380">
          <g id="g386">
            <path id="path394" style="fill-rule:evenodd;fill:url(#linearGradient388)" d="m36.832 118.34c-0.344 0.296-0.117 0.55 0.684 0.761 0.773 0.188 1.41 0.188 1.918 0 1.867-0.746 2.32-1.293 1.359-1.64-0.531-0.188-1.293-0.149-2.277 0.121-0.883 0.265-1.442 0.519-1.684 0.758z" inkscape:connector-curvature="0"/>
          </g>
        </g>
      </g>
      <g id="g396">
        <g id="g398">
          <g id="g404">
            <path id="path412" style="fill-rule:evenodd;fill:url(#linearGradient406)" d="m31.195 108.66c-0.613 0.348-0.828 1.027-0.64 2.043 0.16 0.957 0.574 1.558 1.238 1.797 1.227 0.375 2.242 0.226 3.039-0.438 0.801-0.613 1.016-1.32 0.641-2.121-0.348-0.719-0.985-1.199-1.918-1.441-0.883-0.239-1.668-0.184-2.36 0.16z" inkscape:connector-curvature="0"/>
          </g>
        </g>
      </g>
      <g id="g414">
        <g id="g416">
          <g id="g422">
            <path id="path430" style="fill-rule:evenodd;fill:url(#linearGradient424)" d="m45.434 116.02c1.199 0.024 2.121-0.297 2.761-0.961 0.559-0.613 0.692-1.066 0.399-1.359-0.239-0.242-0.719-0.387-1.442-0.442-0.797-0.054-1.57 0.039-2.32 0.282-0.852 0.265-1.238 0.73-1.16 1.398 0.082 0.695 0.668 1.055 1.762 1.082z" inkscape:connector-curvature="0"/>
          </g>
        </g>
      </g>
      <g id="g432">
        <g id="g434">
          <g id="g440">
            <path id="path448" style="fill-rule:evenodd;fill:url(#linearGradient442)" d="m56.035 115.18c0.934 0.028 1.774-0.343 2.52-1.117 0.746-0.75 0.785-1.148 0.117-1.199-0.559-0.027-1.293 0.105-2.199 0.398-0.801 0.266-1.414 0.536-1.84 0.801-0.344 0.238-0.332 0.481 0.039 0.719 0.32 0.215 0.777 0.348 1.363 0.398z" inkscape:connector-curvature="0"/>
          </g>
        </g>
      </g>
      <path id="path450" style="fill-rule:evenodd;fill:#ffe2b8" d="m37.195 58.3c-0.027 0.266-0.215 1.133-0.562 2.602 4.738-2.746 11.031-2.637 18.879 0.32-0.274-3.5-0.313-6.101-0.117-7.8 0.238-2.188 1.347-5.293 3.32-9.321 2.265-4.613 3.504-7.293 3.719-8.039 1.171-4 1.238-7.601 0.199-10.801-1.227-3.812-3.945-6.453-8.16-7.921-4.211-1.493-8.118-1.934-11.719-1.321-3.359 0.563-6.559 2.043-9.602 4.442-1.918 1.492-3.547 3.734-4.879 6.718-0.828 1.868-1.359 3.442-1.601 4.723-0.051 0.238 1.226 2.559 3.84 6.957 2.933 4.91 4.773 8.375 5.523 10.402 1.094 2.879 1.477 5.895 1.16 9.039z" inkscape:connector-curvature="0"/>
      <path id="path452" style="fill-rule:evenodd;fill:#40555e" d="m62.594 35.543c1.039-3.95 1.027-7.453-0.039-10.52-1.282-3.683-3.977-6.242-8.082-7.683-4.215-1.493-8.121-1.934-11.719-1.317-3.359 0.559-6.563 2.039-9.602 4.438-1.918 1.496-3.547 3.734-4.879 6.718-0.828 1.868-1.359 3.442-1.601 4.723-0.051 0.211 0.441 1.199 1.48 2.961 1.442 2.398 2.575 4.316 3.403 5.758 2.133-1.653 4.386-3.078 6.757-4.281 3.68-1.84 7.227-2.864 10.641-3.079 5.039-0.347 9.586 0.414 13.641 2.282z" inkscape:connector-curvature="0"/>
      <g id="g454">
        <g id="g470" mask="url(#mask462)">
          <g id="g482">
            <g id="g484" clip-path="url(#clipPath474)">
              <g id="g486" transform="translate(0 -.98466)">
                <g id="g490">
                  <g id="g492" clip-path="url(#clipPath478)">
                    <g id="g494">
                      <path id="path496" style="fill-rule:evenodd;fill:#000000" d="m62.434 37.047c1.171-4 1.238-7.602 0.199-10.801-1.227-3.812-3.945-6.453-8.16-7.922-4.215-1.492-8.121-1.933-11.719-1.32-3.359 0.562-6.563 2.043-9.602 4.441-1.918 1.493-3.547 3.735-4.879 6.719-0.828 1.867-1.359 3.441-1.601 4.723-0.051 0.211 0.453 1.238 1.519 3.078 1.524 2.535 2.707 4.535 3.563 6l6.199-4.438c-0.48-3.121-0.426-5.8 0.16-8.043 0.696-2.691 2.227-4.945 4.602-6.757 2.453-1.922 5.012-2.817 7.68-2.68 2.398 0.105 4.64 1 6.718 2.68 1.973 1.57 3.465 3.57 4.481 6 1.039 2.453 1.359 4.851 0.961 7.199l-0.203 1.32 0.082-0.199z" inkscape:connector-curvature="0"/>
                    </g>
                  </g>
                </g>
              </g>
            </g>
          </g>
        </g>
      </g>
      <path id="path498" style="fill-rule:evenodd;fill:#594730" d="m37.195 58.179c1.278-0.879 3.2-1.519 5.758-1.918 2.695-0.425 5.348-0.464 7.961-0.121 1.094 0.133 1.984 0.375 2.68 0.723 0.508 0.238 1.066 0.613 1.679 1.117-0.078-1.574-0.039-3.094 0.122-4.558 0.238-2 1.144-4.696 2.718-8.082 0.879-1.84 2.106-4.36 3.68-7.559-0.586-1.254-1.531-2.398-2.84-3.441-1.547-1.227-3.32-2.012-5.32-2.36-4-0.691-8.094-0.121-12.278 1.723-3.816 1.68-6.906 4.012-9.281 7l0.321 1.359c1.785 3.039 3 5.438 3.64 7.199 1.067 2.801 1.453 5.774 1.16 8.918z" inkscape:connector-curvature="0"/>
      <path id="path500" style="fill-rule:evenodd;fill:#f2e0c7" d="m51.312 38.261c-4.21-0.214-7.824 0.215-10.839 1.282-2.321 0.824-4.692 2.226-7.118 4.199l0.879 1.598c2.055-1.36 4.293-2.45 6.719-3.278 3.254-1.066 6.508-1.508 9.762-1.32 3.89 0.266 6.719 1.055 8.48 2.359l1.2-2.359c-2.028-1.442-5.055-2.266-9.083-2.481z" inkscape:connector-curvature="0"/>
      <path id="path502" style="fill-rule:evenodd;fill:#f2e0c7" d="m32.074 40.703 0.16 0.719c2.161-1.575 4.774-2.856 7.84-3.84 4-1.282 8.149-1.785 12.442-1.52 3.89 0.238 6.918 0.961 9.078 2.16l0.199-0.441c-0.531-1.121-1.387-2.188-2.559-3.199-2.027-0.668-4.414-1.039-7.16-1.121-6.613-0.188-12.558 1.453-17.84 4.922-0.855 0.796-1.574 1.57-2.16 2.32z" inkscape:connector-curvature="0"/>
      <path id="path504" style="fill-rule:evenodd;fill:#f2e0c7" d="m49.113 54.101c2.535 0.266 4.575 0.907 6.121 1.922 0-0.75 0.039-1.496 0.121-2.242-1.574-0.879-3.656-1.387-6.242-1.52-4.664-0.214-8.613 0.68-11.84 2.68 0.055 0.426 0.055 0.867 0 1.32 1.415-0.746 3.161-1.332 5.243-1.761 2.343-0.477 4.543-0.614 6.597-0.399z" inkscape:connector-curvature="0"/>
      <path id="path506" style="fill-rule:evenodd;fill:#f2e0c7" d="m50.195 45.742c2.879 0.293 5.16 0.961 6.84 2l0.957-2.121c-2.16-1.172-4.476-1.906-6.957-2.199-2.375-0.266-4.961-0.067-7.762 0.601-3.066 0.719-5.718 1.891-7.961 3.52l0.68 1.519c1.629-1.015 3.696-1.855 6.203-2.519 2.957-0.801 5.625-1.067 8-0.801z" inkscape:connector-curvature="0"/>
      <path id="path508" style="fill-rule:evenodd;fill:#f2e0c7" d="m36.793 51.621 0.281 1.359c1.254-0.824 3.067-1.531 5.442-2.117 2.933-0.75 5.586-0.961 7.957-0.641 2.215 0.321 3.961 0.786 5.242 1.399 0.133-0.613 0.332-1.281 0.597-2-1.652-0.906-3.64-1.426-5.957-1.559-5.546-0.269-10.066 0.918-13.562 3.559z" inkscape:connector-curvature="0"/>
      <g id="g510">
        <g id="g526" mask="url(#mask518)">
          <g id="g538">
            <g id="g540" clip-path="url(#clipPath530)">
              <g id="g542" transform="translate(0 -.98466)">
                <g id="g546">
                  <g id="g548" clip-path="url(#clipPath534)">
                    <g id="g550">
                      <path id="path552" style="fill-rule:evenodd;fill:#000000" d="m46.715 56.926c-0.215-2.985-0.293-5.813-0.242-8.481 0.082-4.078 0.507-7.133 1.281-9.16 0.293-0.773 1.133-1.133 2.519-1.078 0.801 0.027 2.067 0.172 3.801 0.438 1.387 0.136 2.199-0.133 2.442-0.797 0.316-0.883-0.204-2.536-1.563-4.961-2.504-0.106-5.414 0.16-8.719 0.801-3.546 0.691-6.226 1.585-8.039 2.679l0.797 21.918c2.137-0.824 4.707-1.277 7.723-1.359z" inkscape:connector-curvature="0"/>
                    </g>
                  </g>
                </g>
              </g>
            </g>
          </g>
        </g>
      </g>
      <path id="path554" style="fill-rule:evenodd;fill:#54442d" d="m36.914 60.101c1.094-1.066 2.559-1.828 4.398-2.281 1.68-0.426 2.95-0.465 3.801-0.117l-0.48-17.723c-0.106-3.117 0.039-5.851 0.441-8.199 0.215-1.172 0.442-2.039 0.68-2.602-1.625 0.243-3.481 0.817-5.559 1.723-4.136 1.867-7.281 4.52-9.441 7.961l-0.121 0.199c2.828 4.719 4.629 8.117 5.402 10.199 1.254 3.282 1.547 6.895 0.879 10.84z" inkscape:connector-curvature="0"/>
      <path id="path556" style="fill-rule:evenodd;fill:#3b301e" d="m36.914 60.101c1.094-1.066 2.559-1.828 4.398-2.281l0.52-0.117c0.137-3.414-0.172-6.641-0.918-9.68-0.375-1.656-1.066-4.348-2.082-8.082-0.773-3.305-1.144-5.879-1.117-7.719-2.934 1.707-5.254 3.918-6.961 6.641l-0.121 0.199c2.828 4.719 4.629 8.117 5.402 10.199 1.254 3.282 1.547 6.895 0.879 10.84z" inkscape:connector-curvature="0"/>
      <path id="path558" style="fill-rule:evenodd;fill:#635035" d="m54.355 54.14-0.043 4.481c0.481 0.16 0.907 0.469 1.282 0.922-0.215-2.27-0.215-4.282 0-6.043 0.238-2.16 1.347-5.254 3.32-9.278 2.266-4.613 3.508-7.293 3.719-8.043 0.347-1.171 0.601-2.425 0.762-3.757-1.2-0.586-2.321-0.856-3.36-0.801-0.16 1.414-0.43 3.054-0.801 4.922-0.773 3.757-1.707 6.773-2.8 9.039-1.122 2.265-1.813 5.121-2.079 8.558z" inkscape:connector-curvature="0"/>
      <path id="path560" style="fill-rule:evenodd;fill:#7a6342" d="m43.516 39.66c-0.055-2.801 0.304-5.692 1.078-8.68l-2.199 0.442c-0.696 0.16-1.52 0.48-2.481 0.961l-1.242 0.679c2.535-0.562 3.933-0.586 4.203-0.082 0.133 0.266 0.145 0.934 0.039 2-0.16 1.653-0.242 3.055-0.242 4.199 0 1.496 0.203 4.028 0.601 7.602l0.559 4.879-0.316-12z" inkscape:connector-curvature="0"/>
      <g id="g562">
        <g id="g578" mask="url(#mask570)">
          <g id="g590">
            <g id="g592" clip-path="url(#clipPath582)">
              <g id="g594" transform="translate(0 -.98466)">
                <g id="g598">
                  <g id="g600" clip-path="url(#clipPath586)">
                    <g id="g602">
                      <path id="path604" style="fill-rule:evenodd;fill:#2b1f10" d="m57.594 39.688c0.984-0.376 1.879-0.817 2.679-1.321 0.079-0.137 0.266-1.601 0.559-4.402 0.16-1.758-0.426-4.238-1.758-7.438-0.668-1.629-1.347-3.066-2.039-4.32-0.027 0.531-0.215 1.184-0.562 1.957-0.664 1.547-1.746 2.922-3.239 4.121-1.175 0.961-2.789 1.613-4.839 1.961-2.641 0.481-4.188 0.813-4.641 1-1.52 0.613-2.641 2.051-3.359 4.32-0.481 1.465-0.723 2.868-0.723 4.2 2.32-2.454 4.203-3.973 5.64-4.559 0.934-0.402 2.243-0.016 3.922 1.16 0.371 0.238 1.692 1.321 3.961 3.238 0.934 0.774 2.399 0.801 4.399 0.083z" inkscape:connector-curvature="0"/>
                    </g>
                  </g>
                </g>
              </g>
            </g>
          </g>
        </g>
      </g>
      <path id="path606" style="fill-rule:evenodd;fill:#3b301e" d="m41.832 56.703 13.801 4.238-0.199-1c-0.559-0.586-2.239-1.558-5.039-2.918-1.762-0.883-3.707-1.48-5.84-1.801l-2.723-0.199v1.68z" inkscape:connector-curvature="0"/>
      <path id="path608" style="fill-rule:evenodd;fill:#a3280d" d="m38.273 60.543c1.653-0.774 3.707-1.137 6.161-1.082 2.48 0.027 5.054 0.386 7.718 1.082 1.336 0.32 2.43 0.652 3.282 1 0.558 0 0.734-0.176 0.519-0.52-0.105-0.187-0.265-0.363-0.48-0.523l-1.918-1.278c-1.68-0.961-3.52-1.722-5.52-2.281-2.402-0.641-4.695-0.867-6.883-0.68-2.183 0.161-3.785 0.696-4.797 1.602-0.828 0.746-1.043 1.613-0.64 2.598l0.84 1.281 1.718-1.199z" inkscape:connector-curvature="0"/>
      <path id="path610" style="fill-rule:evenodd;fill:#7d1f0a" d="m36.355 57.859c-0.722 0.613-0.988 1.336-0.8 2.16 0.105 0.535 0.371 1.043 0.8 1.52 0.504-0.449 0.985-0.946 1.438-1.477l-0.32-0.32c-0.184-0.297-0.184-0.563 0-0.801 0.48-0.613 1.906-0.922 4.281-0.922h3.441c-1.468-0.371-2.84-0.558-4.121-0.558-0.801 0-1.547 0.078-2.242 0.238l-0.84 0.242 0.801-0.601c1.148-0.372 3.215-0.438 6.199-0.2 2.641 0.215 5.055 0.84 7.242 1.883 1.735 0.824 2.719 1.531 2.961 2.117l0.16 0.403h0.079c0.558 0 0.734-0.176 0.519-0.52-0.105-0.187-0.265-0.363-0.48-0.523l-1.918-1.278c-1.68-0.961-3.52-1.722-5.52-2.281-2.402-0.641-4.695-0.867-6.883-0.68-2.183 0.161-3.785 0.692-4.797 1.598z" inkscape:connector-curvature="0"/>
      <g id="g612">
        <g id="g628" mask="url(#mask620)">
          <g id="g640">
            <g id="g642" clip-path="url(#clipPath632)">
              <g id="g644" transform="translate(0 -.98466)">
                <g id="g648">
                  <g id="g650" clip-path="url(#clipPath636)">
                    <g id="g652">
                      <path id="path654" style="fill-rule:evenodd;fill:#000000" d="m31.914 19.207c-0.48 1.52-0.945 3.266-1.402 5.238-0.184 0.774-0.106 1.52 0.242 2.243 0.375 0.718 0.894 1.183 1.558 1.398-0.343-0.348-0.574-0.774-0.679-1.281-0.133-0.586-0.078-1.16 0.16-1.719 0.426-0.988 0.762-2.281 1-3.879 0.293-1.867 0.32-3.441 0.082-4.723 0.051-0.796 0.492-1.492 1.32-2.078 0.879-0.668 1.703-0.652 2.477 0.039-0.317-0.586-0.934-1.359-1.84-2.32-0.586-0.641-0.863-1.051-0.84-1.238-2.707-1.043-4.109-0.496-4.199 1.64 0.785 0.813 1.344 1.801 1.68 2.957 0.453 1.657 0.601 2.895 0.441 3.723z" inkscape:connector-curvature="0"/>
                    </g>
                  </g>
                </g>
              </g>
            </g>
          </g>
        </g>
      </g>
      <path id="path656" style="fill-rule:evenodd;fill:#40555e" d="m38.152 17.66c-0.16-1.305-0.64-2.68-1.437-4.117-0.32-0.563-0.961-1.375-1.922-2.442-0.527-0.574-0.82-1.043-0.879-1.398-2.602-0.922-3.988-0.363-4.16 1.68 0.762 0.757 1.336 1.8 1.719 3.117 0.453 1.656 0.601 2.894 0.441 3.722-0.48 1.52-0.945 3.266-1.402 5.239-0.157 0.722-0.078 1.441 0.242 2.16s0.801 1.199 1.441 1.441c1.625 0.613 3.227-0.586 4.797-3.601 1.016-1.918 1.403-3.852 1.16-5.801z" inkscape:connector-curvature="0"/>
      <path id="path658" style="fill-rule:evenodd;fill:#362815" d="m28.594 11.023c0.668 0.344 1.015 0.531 1.039 0.559l0.203 0.078 0.398-0.481c0.399-0.343 1-0.597 1.801-0.757 1.305-0.266 2.012-0.293 2.121-0.082h0.039c-0.133-0.211-0.105-0.383 0.078-0.52l3.2-1.238c1.707-0.696 2.496-1.266 2.363-1.719-0.242-0.668-0.906-1.242-2-1.723-1.281-0.531-2.656-0.625-4.121-0.277-1.52 0.344-2.973 1.227-4.36 2.637-1.281 1.308-1.773 2.269-1.48 2.883 0.133 0.265 0.375 0.48 0.719 0.64z" inkscape:connector-curvature="0"/>
      <path id="path660" style="fill-rule:evenodd;fill:#4d391e" d="m35.113 9.101c0.907-0.238 1.801-0.586 2.68-1.039 1.043-0.535 1.32-0.906 0.84-1.121-1.36-0.586-2.531-0.707-3.52-0.359-0.664 0.238-1.332 0.652-2 1.238-0.746 0.668-0.824 1.082-0.238 1.242 0.719 0.238 1.465 0.254 2.238 0.039z" inkscape:connector-curvature="0"/>
      <path id="path662" style="fill-rule:evenodd;fill:#ffe2b8" d="m39.113 53.781c0.641 0.48 1.188 0.215 1.641-0.801 0.348-0.801 0.558-1.801 0.641-3 0.105-1.625 0.359-3.398 0.757-5.32 0.563-2.797 1.282-4.891 2.16-6.277 0.856-1.336 1.79-1.774 2.801-1.321 0.614 0.293 1.641 1 3.082 2.117 1.387 0.911 2.438 1.547 3.16 1.922 1.145 0.614 2.504 1.028 4.079 1.239 1.785 0.242 3.132-0.067 4.039-0.918 0.855-0.852 1.254-2.161 1.199-3.922-0.024-1.438-0.344-2.426-0.957-2.957-0.426-0.321-1.348-0.856-2.762-1.602-0.984-0.695-1.851-0.668-2.598 0.082l-0.839 1.317 0.398 0.242c0.266 0.187 0.398 0.597 0.398 1.238-0.023 0.723-0.371 1.203-1.039 1.441-0.64 0.215-1.332 0.227-2.078 0.039l-0.961-0.32-2.961-2.078c-2.238-1.254-4.011-1.613-5.32-1.082-1.414 0.563-2.68 2.188-3.801 4.883-0.851 2.051-1.453 4.199-1.797 6.437-0.296 1.922-0.402 3.657-0.32 5.2 0.078 1.839 0.438 2.988 1.078 3.441z" inkscape:connector-curvature="0"/>
      <path id="path664" style="fill-rule:evenodd;fill:#e8c190" d="m56.234 41.023-0.32 0.078 0.879-0.078c0.723-0.109 1.375-0.363 1.961-0.762 0.398-0.265 0.801-0.718 1.199-1.359 0.481 0.586 0.852 0.973 1.121 1.16 0.481 0.344 0.879 0.399 1.199 0.16 0.321-0.722 0.454-1.629 0.399-2.722-0.024-1.438-0.344-2.426-0.957-2.957-0.426-0.321-1.348-0.856-2.762-1.602-0.984-0.695-1.851-0.668-2.598 0.082l-0.839 1.317 0.398 0.242c0.266 0.187 0.398 0.597 0.398 1.238-0.023 0.723-0.371 1.203-1.039 1.441-0.64 0.215-1.332 0.227-2.078 0.039l-0.961-0.32-2.961-2.078c-2.238-1.254-4.011-1.613-5.32-1.082-1.414 0.563-2.68 2.188-3.801 4.883-0.851 2.051-1.453 4.199-1.797 6.437-0.242 1.547-0.363 3.016-0.363 4.403 0.028 1.597 0.227 2.785 0.602 3.558-0.16-1.441-0.078-3.426 0.238-5.961 0.297-2.531 0.695-4.414 1.203-5.64 0.957-2.344 1.613-3.825 1.957-4.438 0.856-1.414 1.828-2.121 2.922-2.121 0.828 0 2.332 0.719 4.52 2.16 2.238 1.442 3.812 2.199 4.718 2.282 0.883 0.05 1.856-0.243 2.922-0.883 0.906-0.504 1.598-0.625 2.078-0.36-0.504 1.2-1.132 2-1.879 2.403-0.425 0.238-0.773 0.398-1.039 0.48z" inkscape:connector-curvature="0"/>
      <path id="path666" style="fill-rule:evenodd;fill:#53280f" d="m58.512 28.941 5-0.238c3.679-0.215 6.336-0.508 7.961-0.883 1.761-0.398 3.535-1.797 5.32-4.199 1.414-1.918 2.441-3.84 3.082-5.758 0.531-1.496 0.305-3.414-0.684-5.762-1.011-2.375-2.05-3.254-3.117-2.64-1.148 0.668-3.121 1.586-5.922 2.761-2.879 1.227-4.773 1.907-5.679 2.039-0.774 0.106-2.188 0.133-4.239 0.079l-2.882-0.079-0.559 1.52 1.719 13.16z" inkscape:connector-curvature="0"/>
      <path id="path668" style="fill-rule:evenodd;fill:#523623" d="m63.594 21.703-0.922-0.121c0.801 0.265 1.883 0.426 3.242 0.48 2.32 0.106 4.348-0.828 6.078-2.801 1.817-2.078 2.817-4.761 3-8.039 0.188-3.574-0.492-6.32-2.039-8.242-1.547-1.945-3.851-2.933-6.918-2.957h-0.121c2.16 0.078 3.801 1.051 4.918 2.918 1.121 1.867 1.59 4.465 1.402 7.801-0.16 3.305-1.082 6-2.761 8.078-1.653 2.027-3.614 2.988-5.879 2.883z" inkscape:connector-curvature="0"/>
      <path id="path670" style="fill-rule:evenodd;fill:#523623" d="m64.434 20.261c0.347-0.027 0.652-0.066 0.921-0.121-1.414-0.504-2.496-1.574-3.242-3.199-0.691-1.441-1.039-3.121-1.039-5.039 0-2.187 0.321-4.039 0.961-5.562 0.774-1.918 2-3.067 3.68-3.438 1.094-0.242 2.094-0.176 3 0.199 0.453 0.188 0.801 0.399 1.039 0.641l-0.801-1.039c-0.719-0.668-1.492-0.961-2.32-0.883-1.465 0-2.586 0.066-3.36 0.203-1.332 0.238-2.238 0.863-2.718 1.879-0.586 1.281-1.082 3.172-1.481 5.68-0.402 2.64-0.453 4.519-0.16 5.64 0.293 1.012 0.961 2.078 2 3.2 0.852 0.906 1.535 1.48 2.039 1.718 0.293 0.133 0.785 0.176 1.481 0.121z" inkscape:connector-curvature="0"/>
      <path id="path672" style="fill-rule:evenodd;fill:#6b4b34" d="m62.395 18.101 1.121-2.64c0.906-2 1.812-3.653 2.718-4.961 1.465-2.078 3.039-3.973 4.719-5.68l-1.84-1.437c-2.508 3.226-4.215 5.585-5.121 7.078-0.558 0.933-1.078 2.425-1.558 4.48l-0.559 2.84c0.023 0.055 0.066 0.105 0.117 0.16 0.11 0.133 0.242 0.188 0.403 0.16z" inkscape:connector-curvature="0"/>
      <path id="path674" style="fill-rule:evenodd;fill:#422919" d="m61.914 17.941 1.121-2.641c0.934-2 1.852-3.652 2.758-4.96 1.441-2.079 3.016-3.973 4.723-5.68l-1.883-1.399c-2.504 3.2-4.199 5.547-5.078 7.039-0.563 0.934-1.133 2.106-1.723 3.52l-0.719 1.883c0.215 1.066 0.481 1.812 0.801 2.238z" inkscape:connector-curvature="0"/>
      <path id="path676" style="fill-rule:evenodd;fill:#301d10" d="m69.352 17.941 0.519-0.398c0.297-0.375 0.336-0.84 0.121-1.403-0.347-0.933-2.812-4.64-7.398-11.117l-0.922-0.441-0.32 1.32 8 12.039z" inkscape:connector-curvature="0"/>
      <path id="path678" style="fill-rule:evenodd;fill:#855d40" d="m68.672 18.621 0.523-0.719c0.293-0.613 0.266-1.242-0.082-1.883-0.801-1.492-3.293-5.226-7.48-11.199-0.106-0.027-0.321 0.215-0.641 0.719-0.183 0.32-0.304 0.656-0.359 1l-0.039 0.441c1.254 1.602 2.386 3.133 3.398 4.602l4.68 7.039z" inkscape:connector-curvature="0"/>
      <path id="path680" style="fill-rule:evenodd;fill:#4f311e" d="m68.754 18.383 0.519-0.762c0.266-0.613 0.227-1.238-0.121-1.879-0.773-1.469-3.265-5.188-7.48-11.16-0.078-0.028-0.277 0.215-0.598 0.718-0.215 0.321-0.347 0.657-0.402 1l-0.039 0.403c1.254 1.597 2.387 3.144 3.398 4.637l4.723 7.043z" inkscape:connector-curvature="0"/>
      <path id="path682" style="fill-rule:evenodd;fill:#402615" d="m63.832 19.062c-1.332-0.082-2.383-0.867-3.16-2.359-0.692-1.442-1.067-3.375-1.117-5.801-0.028-2.32 0.465-4.32 1.48-6 1.012-1.68 2.266-2.574 3.758-2.68 1.707-0.132 3 0.532 3.879 2 0.91 1.465 1.297 3.575 1.16 6.321-0.105 2.586-0.746 4.679-1.918 6.277-1.148 1.574-2.508 2.32-4.082 2.242zm-6.359-7.84c0.054 3.094 0.586 5.575 1.601 7.438 1.094 1.922 2.598 2.933 4.52 3.043 2.265 0.105 4.226-0.856 5.879-2.883 1.679-2.078 2.601-4.773 2.761-8.078 0.215-3.547-0.32-6.266-1.601-8.16-1.278-1.895-3.145-2.746-5.598-2.559-2.16 0.16-3.961 1.305-5.402 3.438-1.465 2.16-2.184 4.746-2.16 7.761z" inkscape:connector-curvature="0"/>
      <path id="path684" style="fill-rule:evenodd;fill:#d4b724" d="m114.11 56.941c0.719 0.188 1.121-0.051 1.199-0.719 0.11-0.668-0.199-0.961-0.917-0.882-0.614 0.054-0.895 0.32-0.84 0.8 0.05 0.453 0.238 0.723 0.558 0.801z" inkscape:connector-curvature="0"/>
      <path id="path686" style="fill-rule:evenodd;fill:#b89e1f" d="m114.47 55.543c0.507-0.215 0.789 0.023 0.839 0.718 0.055-0.265 0-0.492-0.16-0.679-0.16-0.188-0.414-0.266-0.757-0.242-0.614 0.054-0.895 0.32-0.84 0.8 0.05 0.453 0.238 0.723 0.558 0.801l0.242 0.039c-0.187-0.238-0.269-0.519-0.242-0.84 0.028-0.293 0.149-0.492 0.36-0.597z" inkscape:connector-curvature="0"/>
      <path id="path688" style="fill-rule:evenodd;fill:#e6d43d" d="m112.23 60.863c-0.214 0.773-0.148 1.453 0.2 2.039 0.265 0.504 0.64 0.852 1.121 1.039 1.465 0.535 2.613 0.121 3.437-1.238 0.59-0.934 0.895-1.949 0.922-3.043 0.027-0.586 0.227-1.039 0.602-1.36 0.183-0.16 0.371-0.253 0.558-0.277-0.105-0.32-0.375-0.629-0.801-0.922-0.8-0.613-1.945-0.933-3.441-0.961-0.824-0.027-1.504 0.106-2.039 0.403l-0.559 0.398c0.239 0.293 0.399 0.547 0.481 0.762 0.133 0.398-0.027 1.453-0.481 3.16z" inkscape:connector-curvature="0"/>
      <path id="path690" style="fill-rule:evenodd;fill:#ffef69" d="m115.56 63.5c0.961-0.586 1.531-1.504 1.718-2.758 0.106-0.613 0.106-1.176 0-1.68l-0.519 1.559c-0.238 0.64-0.52 1.121-0.84 1.441-0.426 0.293-0.762 0.531-1 0.719-0.348 0.293-0.426 0.547-0.242 0.762 0.187 0.238 0.48 0.226 0.883-0.043z" inkscape:connector-curvature="0"/>
      <path id="path692" style="fill-rule:evenodd;fill:#d9c72e" d="m112.88 62.582 0.437-2.16c0.376-1.52 0.774-2.536 1.204-3.039 0.476-0.586 1.156-0.907 2.039-0.961-0.481-0.161-1.039-0.243-1.68-0.243-0.828 0.028-1.508 0.188-2.043 0.481 0.457 0.75 0.469 1.906 0.043 3.48-0.16 0.586-0.242 1.121-0.242 1.602l0.039 0.558c0.027 0.188 0.066 0.293 0.121 0.321 0.027 0 0.055-0.012 0.082-0.039z" inkscape:connector-curvature="0"/>
      <path id="path694" style="fill-rule:evenodd;fill:#458709" d="m111.2 62.543c0.344 0.105 0.664 0.359 0.957 0.757 0.297 0.426 0.789 0.68 1.481 0.762 0.508 0.504 1.148 0.707 1.922 0.598 0.496-0.098 0.773-0.117 0.84-0.059l-0.321-0.5c-0.105-0.16-0.265-0.304-0.48-0.441l-0.321-0.199 0.243-0.598c0.156-0.375 0.265-0.734 0.316-1.082l-1.039 0.082c-0.293 0.027-0.559 0.199-0.801 0.52l-0.277 0.519c-0.027-0.133-0.375-0.336-1.043-0.602-0.426-0.16-0.797-0.171-1.117-0.039l-0.36 0.282z" inkscape:connector-curvature="0"/>
      <path id="path696" style="fill-rule:evenodd;fill:#63a12a" d="m113.11 63.543c-0.398 2.05-1.215 3.183-2.441 3.398-2.692 0.426-4.156-1.066-4.399-4.48-0.187-2.559-0.05-8.106 0.399-16.641-0.238-0.133-0.492-0.199-0.758-0.199-0.559-0.028-0.949 0.265-1.16 0.879-0.238 7.441-0.266 12.601-0.082 15.48 0.137 2.293 0.816 4.055 2.043 5.281 1.199 1.172 2.652 1.586 4.359 1.239 1.895-0.371 3.106-1.864 3.641-4.477-0.188-0.375-0.453-0.59-0.801-0.64-0.266-0.055-0.535 0-0.801 0.16z" inkscape:connector-curvature="0"/>
      <path id="path698" style="fill-rule:evenodd;fill:#458709" d="m111.2 68.5c1.813-0.453 2.985-1.946 3.52-4.477-0.293-0.617-0.774-0.801-1.442-0.562 0.426 0.293 0.52 0.961 0.282 2-0.321 1.281-1.106 2.293-2.36 3.039z" inkscape:connector-curvature="0"/>
      <path id="path700" style="fill-rule:evenodd;fill:#458709" d="m109.52 67.3c0.824-0.027 1.449-0.253 1.879-0.679-0.215 0.187-0.454 0.293-0.723 0.32-2.692 0.426-4.156-1.066-4.399-4.48-0.187-2.559-0.05-8.106 0.399-16.641-0.238-0.133-0.492-0.199-0.758-0.199-0.559-0.028-0.949 0.265-1.16 0.879v0.043c0.851-0.641 1.199-0.203 1.039 1.32-0.133 1.918-0.238 4.117-0.32 6.598-0.133 3.839-0.118 6.562 0.043 8.16 0.183 1.707 0.718 2.961 1.597 3.762 0.668 0.64 1.469 0.945 2.403 0.917z" inkscape:connector-curvature="0"/>
      <path id="path702" style="fill-rule:evenodd;fill:#4f990a" d="m113.43 63.023c0.132-0.055 0.054-0.176-0.239-0.363-0.32-0.16-0.656-0.25-1-0.277-0.32-0.028-0.535 0-0.64 0.078l-0.082 0.082 0.562 0.117c0.184 0.082 0.465 0.242 0.84 0.48 0.184 0.028 0.371-0.011 0.559-0.117z" inkscape:connector-curvature="0"/>
      <path id="path704" style="fill-rule:evenodd;fill:#4f990a" d="m112.59 63.3c0.078-0.027 0.078-0.054 0-0.078-0.055-0.054-0.133-0.093-0.239-0.121-0.109-0.027-0.148-0.011-0.121 0.039 0 0.055 0.039 0.094 0.121 0.121 0.106 0.055 0.184 0.067 0.239 0.039z" inkscape:connector-curvature="0"/>
      <path id="path706" style="fill-rule:evenodd;fill:#4f990a" d="m112.11 62.98c0.215 0 0.16-0.051-0.16-0.16-0.078 0-0.094 0.027-0.039 0.082 0.078 0.055 0.145 0.078 0.199 0.078z" inkscape:connector-curvature="0"/>
      <path id="path708" style="fill-rule:evenodd;fill:#4f990a" d="m114.4 63.34 0.437-0.719 0.602-0.598c0.027-0.027-0.161 0.012-0.559 0.117-0.508 0.215-0.789 0.403-0.84 0.563-0.055 0.16-0.043 0.305 0.039 0.437 0.078 0.16 0.188 0.227 0.321 0.2z" inkscape:connector-curvature="0"/>
      <path id="path710" style="fill-rule:evenodd;fill:#4f990a" d="m114.79 63.543c0.293 0.023 0.496-0.375 0.602-1.203-0.161-0.024-0.387 0.214-0.68 0.722-0.133 0.321-0.11 0.481 0.078 0.481z" inkscape:connector-curvature="0"/>
      <path id="path712" style="fill-rule:evenodd;fill:#4f990a" d="m115.83 64.422c-0.051-0.215-0.172-0.36-0.359-0.442-0.321-0.133-0.481-0.066-0.481 0.199 0 0.161 0.281 0.243 0.84 0.243z" inkscape:connector-curvature="0"/>
      <path id="path714" style="fill-rule:evenodd;fill:#4f990a" d="m115.47 64.543-0.641-0.082c-0.133 0.082-0.094 0.132 0.121 0.16 0.16 0.027 0.336 0 0.52-0.078z" inkscape:connector-curvature="0"/>
      <path id="path716" style="fill-rule:evenodd;fill:#763a15" d="m106.56 7.742-2.481 5.199 4.039 1 0.16-6.801-1.718 0.602z" inkscape:connector-curvature="0"/>
      <path id="path718" style="fill-rule:evenodd;fill:#5e2d11" d="m108.11 13.941v-1.558c-0.558-0.028-1.054-0.161-1.48-0.403-0.531-0.293-0.867-0.691-1-1.199l-0.16-0.68-1.399 2.84 4.039 1z" inkscape:connector-curvature="0"/>
      <path id="path720" style="fill-rule:evenodd;fill:#9e6a1b" d="m109.91 13.14c-0.027-1.172-0.082-2.117-0.16-2.84-0.082-0.8-0.133-1.707-0.16-2.718l-1.321-0.442-0.441 7.243 2.121 0.277-0.039-1.52z" inkscape:connector-curvature="0"/>
      <path id="path722" style="fill-rule:evenodd;fill:#763a15" d="m88.152 8.261 5.68 1.399v-1.078c0-0.719 0.109-3.426 0.32-8.121l-2.16 0.718c-0.773 1.282-1.304 2.227-1.597 2.844l-2.243 4.238z" inkscape:connector-curvature="0"/>
      <path id="path724" style="fill-rule:evenodd;fill:#5e2d11" d="m93.832 9.66v-2.117c-0.746-0.028-1.437-0.215-2.078-0.563-0.719-0.398-1.172-0.945-1.359-1.64l-0.2-0.957-2.043 3.878 5.68 1.399z" inkscape:connector-curvature="0"/>
      <path id="path726" style="fill-rule:evenodd;fill:#9e6a1b" d="m93.434 10.261 2.921 0.442-0.203-5.68c0.028-1.414 0-2.695-0.078-3.844l-1.922-0.718c-0.398 4.906-0.636 8.175-0.718 9.8z" inkscape:connector-curvature="0"/>
      <path id="path728" style="fill-rule:evenodd;fill:#763a15" d="m51.195 34.703 3.52 2.437 0.519 0.039c0.399-0.05 0.707-0.199 0.918-0.437 0.375-0.402 0.309-0.867-0.199-1.402l-3.238-2.399c-0.668-0.051-1.11 0.133-1.32 0.559-0.133 0.269-0.2 0.547-0.2 0.84v0.363z" inkscape:connector-curvature="0"/>
      <path id="path730" style="fill-rule:evenodd;fill:#b56d17" d="m53.875 33.261-3.242 1.079c0.055 0.136 0.187 0.296 0.402 0.48 0.371 0.375 0.891 0.695 1.559 0.961 1.094 0.426 3.535 1.082 7.32 1.961l0.16-2.082-6.199-2.399z" inkscape:connector-curvature="0"/>
      <path id="path732" style="fill-rule:evenodd;fill:#763a15" d="m57.875 36.941 1.758-6.039c-5.117 0.453-7.961 0.973-8.52 1.559-0.508 0.535-0.679 1.082-0.519 1.64 0.16 0.668 0.785 1.121 1.879 1.36 1.601 0.347 3.402 0.839 5.402 1.48z" inkscape:connector-curvature="0"/>
      <path id="path734" style="fill-rule:evenodd;fill:#e3ac4b" d="m62.473 47.14c5.656 1.817 13.175 2.68 22.562 2.602 10.559-0.082 17.813-0.801 21.758-2.16 2.293-0.801 3.441-1.856 3.441-3.16 0-1.282-1.48-3.028-4.441-5.243-3.785-2.851-8.414-4.73-13.879-5.636-5.254-0.883-11.535-2.364-18.84-4.442l-9.402-2.84-6.879 18.161c0.242 0.238 0.652 0.519 1.242 0.839 1.172 0.696 2.653 1.321 4.438 1.879z" inkscape:connector-curvature="0"/>
      <path id="path736" style="fill-rule:evenodd;fill:#b67f38" d="m61.113 44.863 2.039 0.918c1.547 0.641 2.707 1.055 3.481 1.242 0.055 0 0.894 0.238 2.519 0.719 0.961 0.293 1.883 0.453 2.762 0.48 0.293 0 2 0.145 5.121 0.438 2.692 0.242 4.785 0.348 6.277 0.32 2.11-0.027 5.868-0.133 11.282-0.32 1.625-0.051 3.453-0.266 5.48-0.637 1.973-0.348 3.305-0.683 4-1 0.238-0.109 1.094-0.375 2.559-0.801 1.039-0.32 1.601-0.629 1.679-0.922 0.11-0.425-2.347-1.292-7.359-2.597-5.144-1.336-8.84-2-11.078-2-2.773-0.028-4.734-0.043-5.883-0.043-1.89 0.027-3.785 0.137-5.68 0.32-1.332 0.133-3.144 0.242-5.437 0.32-1.734 0.083-3.066 0.2-4 0.36-0.613 0.137-1.414 0.242-2.402 0.32-0.559 0.055-1.2 0.227-1.918 0.52-0.801 0.32-1.496 0.695-2.082 1.121l-0.641 0.519 4.801-1.199c1.199-0.32 2.187-0.547 2.961-0.68 0.851-0.105 1.933-0.16 3.238-0.16 0.934 0 2.48-0.105 4.641-0.32 2.265-0.238 3.839-0.359 4.722-0.359 4.211-0.133 7.172-0.122 8.879 0.039 1.598 0.16 3.625 0.519 6.078 1.082 2.453 0.531 4.16 1.011 5.121 1.437 1.282 0.535 2.321 1.094 3.122 1.68l-2.68 0.961c-1.895 0.773-4.348 1.281-7.36 1.519-2.347 0.215-5.253 0.321-8.722 0.321-3.625 0-6.758-0.106-9.399-0.321-4.855-0.32-7.961-0.785-9.32-1.398-0.48-0.215-1.176-0.469-2.082-0.762-0.852-0.293-1.383-0.48-1.598-0.558-0.453-0.215-1.039-0.399-1.761-0.559-0.481 0.133-0.934 0.133-1.36 0z" inkscape:connector-curvature="0"/>
      <path id="path738" style="fill-rule:evenodd;fill:#b67f38" d="m64.793 44.902c3.172 0.961 5.895 1.641 8.16 2.039 2.16 0.399 3.813 0.652 4.961 0.762 1.973 0.183 4.172 0.211 6.602 0.078 3.652-0.215 6.343-0.281 8.078-0.199-3.547-0.348-6.293-0.469-8.239-0.36-2.988 0.133-5.96 0-8.921-0.402-2.746-0.371-5.305-1.051-7.68-2.039-0.399-0.16-0.492-0.266-0.281-0.32 0.215-0.051 1.027-0.133 2.441-0.239 0.691-0.054 1.613-0.199 2.758-0.441 0.988-0.215 2.308-0.348 3.961-0.398l9.922-0.204c3.199-0.05 5.707 0 7.519 0.161 1.492 0.16 2.758 0.414 3.801 0.761 1.277 0.426 2.066 0.641 2.359 0.641-0.453-0.32-1.093-0.641-1.922-0.961-1.624-0.641-3.32-0.961-5.078-0.961-1.093 0-3.093-0.094-6-0.277-2.453-0.16-4.496-0.203-6.121-0.121-1.254 0.078-2.84 0.144-4.758 0.199-1.468 0.027-2.855 0.105-4.16 0.242-1.523 0.16-3.242 0.492-5.16 1l-2.402 0.719c-0.078 0.027-0.133 0.051-0.16 0.078-0.051 0.082 0.054 0.16 0.32 0.242z" inkscape:connector-curvature="0"/>
      <path id="path740" style="fill-rule:evenodd;fill:#b67f38" d="m95.473 47.222c1.199 0 2.132-0.132 2.8-0.402 0.055-0.023 0.387-0.238 1-0.641l0.481-0.238-0.602-0.641c0.028 0.106-0.011 0.227-0.117 0.36-0.187 0.297-0.574 0.508-1.16 0.64-0.27 0.055-0.652 0.188-1.16 0.403-0.348 0.105-0.949 0.211-1.801 0.32-0.43 0.047-0.863 0.074-1.301 0.078l1.86 0.121z" inkscape:connector-curvature="0"/>
      <path id="path742" style="fill-rule:evenodd;fill:#b67f38" d="m95.793 46.3c0.801-0.531 0.906-0.945 0.32-1.238-0.187-0.105-0.359-0.254-0.519-0.441-0.266-0.133-0.879-0.199-1.84-0.199-0.852 0-2.254-0.094-4.199-0.282-2.188-0.183-3.52-0.293-4-0.32-0.426 0-0.922-0.051-1.481-0.16-0.32-0.051-1.015-0.039-2.082 0.043l-4 0.199 2.481-0.082c1.867 0 3.347 0.109 4.441 0.32 1.066 0.215 2.254 0.348 3.559 0.403 0.722 0.023 1.679 0.066 2.882 0.117 1.094 0.082 1.747 0.16 1.957 0.242 1.309 0.344 1.989 0.625 2.043 0.84 0.024 0.215-0.574 0.398-1.8 0.558-0.375 0.055-0.895 0.094-1.563 0.122-0.879 0-1.437 0.011-1.68 0.039l-3.32 0.121 6.883 0.039c0.719 0 1.172-0.012 1.359-0.039 0.161-0.055 0.348-0.149 0.559-0.282z" inkscape:connector-curvature="0"/>
      <path id="path744" style="fill-rule:evenodd;fill:#b67f38" d="m84.395 45.101c0.96 0 1.199-0.027 0.718-0.078-0.078-0.027-1.011-0.121-2.801-0.281-1.066-0.106-2.05-0.16-2.957-0.16-0.773 0.051-1.214 0.078-1.32 0.078h-2.402c-0.879 0-1.879 0.043-3 0.121-1.172 0.082-1.852 0.172-2.039 0.281-0.16 0.078-0.012 0.145 0.441 0.199 0.32 0.055 0.985 0.133 2 0.239 0.266 0.027 0.973 0.148 2.117 0.363 0.989 0.184 2.203 0.332 3.641 0.437 2.293 0.188 4.055 0.188 5.281 0-0.16 0-1.386-0.078-3.679-0.238-0.723-0.054-1.879-0.215-3.481-0.48l-2.199-0.36 0.719-0.043c0.453-0.05 3.441-0.078 8.961-0.078z" inkscape:connector-curvature="0"/>
      <path id="path746" style="fill-rule:evenodd;fill:#b67f38" d="m90.113 45.422-9.281 0.199 0.641 0.082c0.562 0.078 1.132 0.117 1.722 0.117 0.934 0 2.907 0.055 5.918 0.16 2.426 0.028 3.559-0.051 3.403-0.238-0.188-0.16-0.989-0.266-2.403-0.32z" inkscape:connector-curvature="0"/>
      <path id="path748" style="fill-rule:evenodd;fill:#b67f38" d="m74.113 40.703c1.094-0.11 1.801-0.149 2.121-0.121 0.239 0.027 0.547 0.011 0.918-0.039 0.43-0.11 1.043-0.243 1.84-0.403 0.508-0.105 0.535-0.144 0.082-0.117h-3.519c-0.828 0-2.243 0.199-4.243 0.598l-2.757 0.601 5.558-0.519z" inkscape:connector-curvature="0"/>
      <path id="path750" style="fill-rule:evenodd;fill:#9a5210" d="m60.113 20.941c-1.386-1.332-2.304-3.641-2.758-6.918l-1.121 0.797c0.614 5.734 0.918 10.188 0.918 13.359 0 1.977-0.05 5.282-0.16 9.922l-0.199 6.321 0.922-0.922c0.906-0.746 2.105-1.426 3.597-2.039 4.774-1.973 11.536-2.961 20.282-2.961 9.625 0 17.293 0.988 23 2.961 2.851 0.988 4.734 1.972 5.64 2.961l0.121-3.039c0.051-2.454 0.079-4.75 0.079-6.883 0-3.438 0.32-9.813 0.961-19.117-1.68-1.547-4.266-3.043-7.762-4.481-6.958-2.906-14.931-4.082-23.915-3.519-2.828 0.183-4.789 0.371-5.883 0.558-0.051 2.055-0.332 4.094-0.84 6.121-0.613 2.481-1.476 4.387-2.597 5.719-1.547 1.894-3.321 2.922-5.321 3.082-1.84 0.133-3.492-0.508-4.961-1.922z" inkscape:connector-curvature="0"/>
      <path id="path752" style="fill-rule:evenodd;fill:#87470e" d="m81.875 30.101c-0.082-2.801 0.238-6.547 0.957-11.238 0.43-2.668 1.094-6.535 2-11.602-1.652-0.054-3.359-0.015-5.117 0.122l-0.723 0.039c0.696 4.32 0.867 7.105 0.524 8.359-0.055 0.187-0.801 1.879-2.243 5.082-1.226 2.746-1.918 4.863-2.078 6.359-0.16 1.575-0.215 3.493-0.16 5.758 0 0.32 0.051 2.227 0.16 5.723 2.184-0.137 4.321-0.203 6.399-0.203h0.32c0.055-2.637 0.039-5.438-0.039-8.399z" inkscape:connector-curvature="0"/>
      <path id="path754" style="fill-rule:evenodd;fill:#87470e" d="m61.672 23.582-1.238-0.762c0.828 1.094 1.652 3.176 2.48 6.242 0.426 1.547 0.508 3.613 0.238 6.199-0.425 2.801-0.718 4.735-0.879 5.801 2.508-0.883 5.36-1.519 8.559-1.922-1.383-2.293-2.371-4.414-2.957-6.359-0.508-1.707-0.68-3.625-0.52-5.758 0.079-1.043 0.211-1.922 0.399-2.64h-2.762c-1.144 0-2.254-0.27-3.32-0.801z" inkscape:connector-curvature="0"/>
      <path id="path756" style="fill-rule:evenodd;fill:#87470e" d="m57.074 44.062c0.266-0.293 0.614-0.586 1.039-0.883 0.801-6.531 1.121-11.359 0.961-14.476 0-0.27-0.254-2.121-0.762-5.563-0.32-2.05-0.253-3.597 0.204-4.64-0.563-1.254-0.95-2.746-1.161-4.477l-1.121 0.797c0.614 5.734 0.918 10.188 0.918 13.359 0 1.977-0.05 5.282-0.16 9.922l-0.199 6.321 0.281-0.36z" inkscape:connector-curvature="0"/>
      <path id="path758" style="fill-rule:evenodd;fill:#87470e" d="m72.992 14.062c-0.613 2.481-1.476 4.387-2.597 5.719-1.2 1.441-2.52 2.375-3.961 2.801 0.855 0.16 2.199-0.215 4.039-1.121 1.922-0.961 3.429-2.067 4.519-3.321 0.774-0.906 1.856-2.293 3.242-4.16 1.254-1.492 2.465-2.398 3.641-2.719 2.16-0.586 3.531-0.906 4.117-0.961 1.363-0.078 2.11 0.415 2.242 1.481 0.055 0.508 0.746 2.934 2.078 7.281 1.309 4.266 2.016 7.348 2.122 9.238 0.238 5.2-1.414 8.641-4.961 10.321 7.574 0.375 13.64 1.453 18.199 3.242 2.297 0.879 3.816 1.73 4.562 2.559l0.121-3.039c0.051-2.454 0.079-4.75 0.079-6.883 0-3.438 0.32-9.813 0.961-19.117-1.68-1.547-4.266-3.043-7.762-4.481-6.958-2.906-14.931-4.082-23.915-3.519-2.828 0.183-4.789 0.371-5.883 0.558-0.051 2.055-0.332 4.094-0.84 6.121z" inkscape:connector-curvature="0"/>
      <path id="path760" style="fill-rule:evenodd;fill:#763a15" d="m72.992 14.062c-0.613 2.481-1.476 4.387-2.597 5.719-0.907 1.121-1.895 1.922-2.961 2.398h0.16c1.812-0.343 3.492-2.011 5.039-5 1.972-3.785 3.121-5.839 3.441-6.156 2.055-2.055 6.121-2.668 12.199-1.844 1.762 0.243 3.161 1.082 4.2 2.524l1.043 2.078 2.957-1.16 3.082-0.641c1.277-0.293 2.332 0.188 3.16 1.442l0.84 1.961 0.359-0.321c0.559 0.133 1.652 1.012 3.281 2.641 1.973 1.972 3.172 4.398 3.598 7.277l0.602-9.597c-1.68-1.547-4.266-3.043-7.762-4.481-6.968-2.906-14.941-4.082-23.925-3.519-2.828 0.183-4.789 0.371-5.883 0.558-0.051 2.055-0.332 4.094-0.84 6.121z" inkscape:connector-curvature="0"/>
      <path id="path762" style="fill-rule:evenodd;fill:#763a15" d="m93.074 14.461c0.028 1.093 0.465 3.347 1.321 6.761 0.8 3.305 1.199 5.758 1.199 7.36 0 1.867-0.332 3.758-1 5.679-0.668 1.84-1.52 3.399-2.559 4.68 2.024 0.215 4.133 0.508 6.32 0.879 0.399-1.227 0.731-2.945 1-5.16 0.317-2.426 0.426-4.625 0.317-6.598-0.051-1.199-0.305-3.32-0.758-6.359-0.348-2.43-0.48-4.547-0.398-6.363 0.105-2 0.57-3.934 1.398-5.797-2.055-0.641-4.105-1.137-6.16-1.481-0.535 2.613-0.762 4.746-0.68 6.399z" inkscape:connector-curvature="0"/>
      <path id="path764" style="fill-rule:evenodd;fill:#763a15" d="m108.95 39.14c-0.027 1.067-0.414 2.293-1.16 3.68 0.215 0.082 0.547 0.254 1 0.52 0.293-1.946 0.387-4.2 0.281-6.758l-0.121 2.558z" inkscape:connector-curvature="0"/>
      <path id="path766" style="fill-rule:evenodd;fill:#763a15" d="m106.95 42.383c0.133-1.547 0.375-3.27 0.719-5.161 0.32-1.656 0.469-4.535 0.441-8.64 0-2.188-0.011-4.907-0.039-8.16 0.078-1.602 0.426-3.829 1.039-6.68-1.093-0.746-2.441-1.481-4.039-2.199l-0.441 3.039c-0.238 1.945-0.067 4.801 0.519 8.558 0.723 4.481 1.094 7.227 1.121 8.243 0.082 2.343-0.398 5.73-1.441 10.16 0.75 0.238 1.457 0.519 2.121 0.84z" inkscape:connector-curvature="0"/>
      <path id="path768" style="fill-rule:evenodd;fill:#763a15" d="m103.72 41.179c-0.027-0.476 0.094-1.73 0.359-3.757 0.293-2.215 0.442-4.016 0.442-5.399 0-1.707-0.442-3.574-1.321-5.601-0.457-1.039-0.906-1.895-1.363-2.559l0.523 3.559c0.239 1.734 0.266 3.332 0.079 4.8-0.161 1.387-0.536 2.918-1.122 4.598-0.371 1.148-1 2.227-1.878 3.242 1.785 0.399 3.214 0.774 4.281 1.117z" inkscape:connector-curvature="0"/>
      <path id="path770" style="fill-rule:evenodd;fill:#5e2d11" d="m109.09 13.82 0.019 0.02c0.004-0.032 0.004-0.067 0-0.098-0.008 0.027-0.015 0.051-0.019 0.078l-1.66-1.117c-3.547-1.949-7.575-3.387-12.079-4.32-0.32 2.691 0.012 5.597 1 8.718 0.372 1.172 0.719 3.227 1.04 6.16l0.359 4.039 0.16-1.238c0.051-1.199 0-2.789-0.16-4.762-0.188-2.48-0.238-4.253-0.16-5.32 0.078-1.254 0.386-2.613 0.922-4.078 0.613-1.602 1.57-2.133 2.879-1.602 1.304 0.563 1.878 1.946 1.718 4.161-0.16 1.734 0.133 4.199 0.879 7.402 0.906 4 1.414 6.57 1.524 7.719 0.211 2.051 0.156 4.664-0.161 7.84l-0.523 4.121 0.641-1.563c0.507-1.332 0.949-2.758 1.32-4.277 0.32-1.336 0.426-3.414 0.32-6.242-0.105-3.254-0.078-5.547 0.082-6.879 0.317-3.012 0.95-5.934 1.899-8.762zm0.019 0.02c0.242 4.414 0.36 8.257 0.36 11.543 0 0.453-0.078 2.21-0.239 5.277-0.082 1.762 0 4.027 0.239 6.801 0.242 2.8 0.175 4.867-0.2 6.199l0.961 0.762 0.121-3.039c0.051-2.454 0.079-4.75 0.079-6.883 0-3.438 0.32-9.813 0.961-19.117l-2.282-1.543z" inkscape:connector-curvature="0"/>
      <path id="path772" style="fill-rule:evenodd;fill:#b56d17" d="m81.594 33.14c0.105 1.121 0.16 2.907 0.16 5.36 2.027 0 3.918 0.043 5.68 0.121 0.238-3.387 0.304-6.078 0.199-8.078-0.106-2.586-0.625-5.364-1.559-8.321v1.239c0 2.347-0.105 4.707-0.32 7.082-0.106 1.117-0.426 2.265-0.961 3.437l-0.719 1.442-0.242-4.2c-0.051-0.8-0.211-2.265-0.477-4.402-0.214-1.812-0.347-3.184-0.402-4.117-0.105-1.68 0.375-5.723 1.442-12.121-1.227 5.254-2.067 8.972-2.52 11.16-0.563 2.613-0.656 6.414-0.281 11.398z" inkscape:connector-curvature="0"/>
      <path id="path774" style="fill-rule:evenodd;fill:#b56d17" d="m74.953 38.703c-0.187-0.43-0.531-1.203-1.039-2.32-0.508-1.094-0.906-2.176-1.199-3.243-0.426-1.574-0.426-3.746 0-6.519 0.211-1.387 0.465-2.613 0.758-3.68-0.371 0.453-0.774 1.055-1.2 1.801-0.878 1.519-1.453 3.012-1.718 4.48-0.293 1.493-0.254 3.172 0.117 5.039l0.64 2.399-0.757-0.879c-0.586-0.746-1.16-1.535-1.723-2.359-0.559-0.829-1-2.493-1.316-5-0.161-1.254-0.27-2.414-0.321-3.481l-0.203 1.442c-0.133 1.039-0.094 2.414 0.121 4.117 0.266 2.215 0.801 3.988 1.602 5.32 1.012 1.734 1.597 2.855 1.758 3.359 1.386-0.211 2.882-0.371 4.48-0.476z" inkscape:connector-curvature="0"/>
      <path id="path776" style="fill-rule:evenodd;fill:#b56d17" d="m59.172 21.582c0.152 0.402 0.398 0.828 0.742 1.281 0.879 1.117 2.094 1.879 3.641 2.277 1.226 0.321 2.48 0.254 3.757-0.199 0.641-0.215 1.149-0.465 1.52-0.762-0.691 0.082-1.504 0.121-2.437 0.121-1.84-0.027-3.321-0.253-4.442-0.679-1.121-0.453-1.933-0.973-2.437-1.559-0.161-0.172-0.274-0.332-0.344-0.48z" inkscape:connector-curvature="0"/>
      <path id="path778" style="fill-rule:evenodd;fill:#b56d17" d="m58.434 41.742 1-4.641c0.613-3.465 0.812-6.215 0.601-8.238-0.187-2.027-0.613-3.855-1.281-5.48-0.32-0.801-0.625-1.403-0.922-1.801 0.773 3.199 1.16 6.386 1.16 9.558 0 1.973-0.094 4.336-0.277 7.082l-0.281 3.52z" inkscape:connector-curvature="0"/>
      <g id="g780">
        <g id="g782">
          <g id="g788">
            <path id="path796" style="fill-rule:evenodd;fill:url(#linearGradient790)" d="m83.754 48.261c4.027 0.028 7.746-0.238 11.16-0.8 3.813-0.641 5.52-1.426 5.121-2.36-0.375-0.933-2.137-1.695-5.281-2.281-2.852-0.504-6.281-0.785-10.281-0.84-8.825-0.105-14.332 0.707-16.52 2.442-1.144 0.906 0.254 1.773 4.199 2.601 3.602 0.746 7.469 1.156 11.602 1.238z" inkscape:connector-curvature="0"/>
          </g>
        </g>
      </g>
      <path id="path798" style="fill-rule:evenodd;fill:#ad7e37" d="m83.754 48.261c4.027 0.028 7.746-0.238 11.16-0.8 3.813-0.641 5.52-1.426 5.121-2.36-0.082-0.238-0.297-0.492-0.64-0.761-0.934 0.8-2.829 1.441-5.68 1.921-2.801 0.454-5.735 0.629-8.801 0.52-3.949-0.133-6.949-0.348-9-0.641-3.387-0.425-5.84-1.144-7.359-2.16l-0.602 0.442c-1.144 0.906 0.254 1.773 4.199 2.601 3.602 0.746 7.469 1.156 11.602 1.238z" inkscape:connector-curvature="0"/>
      <path id="path800" style="fill-rule:evenodd;fill:#996b2f" d="m90.355 49.543c1.571-0.055 2.293-0.243 2.161-0.563-0.161-0.32-1-0.504-2.524-0.558-0.957-0.055-1.89 0-2.797 0.16-0.961 0.133-1.429 0.304-1.402 0.519 0.133 0.453 1.656 0.602 4.562 0.442z" inkscape:connector-curvature="0"/>
      <path id="path802" style="fill-rule:evenodd;fill:#994400" d="m101.43 154.42c7.171-0.426 13.652-1.387 19.441-2.879 6.051-1.52 8.293-2.883 6.719-4.082-1.574-1.227-5.426-3.094-11.559-5.598-5.976-2.48-11.281-4.43-15.922-5.84-4.215-1.281-14.945-3.094-32.199-5.441-16.133-2.188-27.762-3.52-34.879-4-10.746-0.746-15.933-0.68-15.562 0.199 0.187 0.426 3.32 2.734 9.402 6.922 6.586 4.558 11.813 7.906 15.68 10.039 7.519 1.918 15.613 3.812 24.277 5.68 17.363 3.707 28.895 5.375 34.602 5z" inkscape:connector-curvature="0"/>
      <path id="path804" style="fill-rule:evenodd;fill:#d9983c" d="m120.07 146.34c-4.105-2.45-8.453-4.426-13.039-5.918-4.613-1.52-11.762-3.332-21.441-5.442-7.922-1.734-19.879-3.492-35.879-5.277-11.977-1.336-20.934-2.188-26.883-2.563-3.918-0.238-2.703 1.176 3.641 4.243 3.839 1.863 11.695 5.386 23.562 10.558 3.973 1.785 17.465 3.453 40.481 5 23.066 1.574 32.918 1.375 29.558-0.601z" inkscape:connector-curvature="0"/>
      <path id="path806" style="fill-rule:evenodd;fill:#8c5418" d="m98.594 139.54 5.199 2c3.812 1.492 6.602 2.679 8.359 3.558 1.762 0.852 3.52 1.492 5.282 1.922 0.906 0.211 1.625 0.332 2.16 0.36-1.867-1.204-4.321-2.508-7.36-3.922-6.054-2.852-11.933-4.801-17.64-5.84l-8.399-1.52c-1.656-0.718-4-1.375-7.043-1.961l-4.039-0.679 7.082 2.839c-7.015-2.027-11.668-3.238-13.961-3.64l-8.199-1.32 4.117 1.082c3.176 0.851 5.75 1.64 7.723 2.359 1.855 0.672 3.82 1.269 5.898 1.801-11.043-2.481-18.929-4.231-23.66-5.242-5.332-1.145-9.215-1.84-11.64-2.079l8.562 1.918c6.293 1.469 10.824 2.602 13.598 3.403 2.84 0.816 5.16 1.422 6.961 1.82-12.004-2.195-21.457-4-28.36-5.422-4.613-0.957-9.082-1.64-13.402-2.039l-5.117-0.281c8.801 1.789 16.305 3.254 22.519 4.402 6.239 1.145 13.879 2.613 22.918 4.399-12.851-1.918-20.613-2.946-23.277-3.078l-5.16-0.161 17.957 3.039c2.32 0.375 4.32 0.653 6 0.84l1.043 0.121c-2.027 0.239-3.36 0.36-4 0.36h-0.961l4.719 0.398c3.761 0.188 7.148 0.121 10.16-0.199 1.281-0.133 1.922-0.133 1.922 0l-6.121 1.16 10.121-0.199-1.321 1.519 1.2-0.199c0.878-0.187 1.558-0.441 2.039-0.762l1.121-0.757c1.652 1.144 2.547 2.039 2.679 2.679l0.2 0.957 0.961-3.039 10.121 4-4.602-4.199 3.68 1.481c2.773 1.144 4.922 2.121 6.441 2.918l4.399 2.281-10.879-7.078z" inkscape:connector-curvature="0"/>
      <g id="g808">
        <g id="g810">
          <g id="g816">
            <path id="path824" style="fill-rule:evenodd;fill:url(#radialGradient818)" d="m141.75 151.62c0.984-0.453 1.121-1.067 0.398-1.84-1.414-1.574-6.32-3.199-14.718-4.879-7.387-1.469-16.813-2.254-28.282-2.359-13.25-0.11-24.16-0.723-32.718-1.84-12.129-1.6-23.93-4.4-35.395-8.4-5.734-2-10.254-3.839-13.562-5.519 5.254 5.094 11.054 10.426 17.402 16 12.719 11.121 21.863 17.852 27.437 20.199 7.817 3.309 15.227 4.547 22.243 3.723 2.824-0.32 6.254-1.043 10.277-2.16 2.402-0.668 6.348-1.817 11.84-3.442 17.789-5.121 29.48-8.281 35.082-9.48z" inkscape:connector-curvature="0"/>
          </g>
        </g>
      </g>
      <path id="path826" style="fill-rule:evenodd;fill:#994400" d="m64.754 163.94c-8.988-5.547-14.227-10.734-15.719-15.558-1.363-4.403 1.399-7.442 8.277-9.122-10.023-1.867-19.664-4.507-28.917-7.921-4.641-1.704-8.282-3.227-10.922-4.559 5.254 5.094 11.054 10.426 17.402 16 12.719 11.121 21.863 17.852 27.437 20.199l2.442 0.961z" inkscape:connector-curvature="0"/>
      <path id="path828" style="fill-rule:evenodd;fill:#994400" d="m103.56 143.38c5.066-0.188 10.027-0.149 14.879 0.117-4.614-0.532-12.442-0.864-23.481-1-10.591-0.08-20.099-0.68-28.524-1.8-12.133-1.6-23.934-4.4-35.399-8.4-5.734-2-10.254-3.839-13.562-5.519l1.761 1.68c3.575 2.695 10.106 5.496 19.598 8.402 7.867 2.398 18.055 4.199 30.563 5.398 11.867 1.145 23.253 1.52 34.16 1.122z" inkscape:connector-curvature="0"/>
      <path id="path830" style="fill-rule:evenodd;fill:#cc6d00" d="m99.832 161.02c1.309-0.75 2.055-1.414 2.242-2 0.188-0.64-0.281-1.066-1.402-1.281-2.238-0.453-5.852 0.121-10.84 1.719-3.758 1.226-6.586 2.347-8.477 3.359-1.121 0.563-1.109 1.109 0.04 1.641 1.171 0.562 2.972 0.679 5.398 0.359 5.574-0.746 9.922-2.012 13.039-3.797z" inkscape:connector-curvature="0"/>
      <path id="path832" style="fill-rule:evenodd;fill:#994400" d="m63.434 159.74c-0.133-0.746-0.508-1.481-1.122-2.199-1.199-1.469-2.957-2.203-5.277-2.203-1.363 0-1.855 0.789-1.48 2.363 0.398 1.543 1.332 2.746 2.8 3.597 1.84 1.067 3.239 1.122 4.2 0.161 0.48-0.453 0.773-1.028 0.879-1.719z" inkscape:connector-curvature="0"/>
      <path id="path834" style="fill-rule:evenodd;fill:#994400" d="m72.035 154.34c0.133-0.614 0.039-1.239-0.281-1.879-0.641-1.227-2.106-1.84-4.399-1.84-1.441 0-2.226 0.668-2.363 2-0.105 1.359 0.547 2.453 1.961 3.281 1.84 1.066 3.242 1.121 4.199 0.16 0.481-0.453 0.774-1.027 0.883-1.722z" inkscape:connector-curvature="0"/>
      <path id="path836" style="fill-rule:evenodd;fill:#994400" d="m56.152 144.82c0-0.691-0.238-1.398-0.718-2.117-0.961-1.387-2.586-2.082-4.879-2.082-1.469 0-2.348 0.719-2.641 2.16-0.32 1.465 0.227 2.613 1.641 3.441 1.84 1.039 3.492 1.118 4.961 0.239 0.718-0.453 1.265-1 1.636-1.641z" inkscape:connector-curvature="0"/>
      <path id="path838" style="fill-rule:evenodd;fill:#994400" d="m78.953 166.42c-0.215-0.426-0.652-0.868-1.32-1.321-1.36-0.855-3.184-1.281-5.481-1.281-1.464 0-2.25 0.293-2.359 0.883-0.133 0.586 0.519 1.293 1.961 2.117 1.84 1.043 3.586 1.293 5.238 0.762 0.856-0.293 1.508-0.68 1.961-1.16z" inkscape:connector-curvature="0"/>
      <path id="path840" style="fill-rule:evenodd;fill:#994400" d="m90.555 152.82c-1.52 0-2.707 0.707-3.563 2.121-0.879 1.442-0.625 2.559 0.762 3.359 1.039 0.586 2.066 0.668 3.078 0.243 0.906-0.403 1.59-1.082 2.043-2.043 0.48-0.934 0.547-1.758 0.199-2.477-0.402-0.801-1.242-1.203-2.519-1.203z" inkscape:connector-curvature="0"/>
      <path id="path842" style="fill-rule:evenodd;fill:#994400" d="m106.36 156.82c-1.574 0-2.988 0.574-4.242 1.723-1.304 1.199-1.293 2.183 0.039 2.957 1.043 0.59 2.149 0.707 3.321 0.363 1.015-0.32 1.855-0.906 2.519-1.762 0.641-0.801 0.856-1.535 0.641-2.199-0.238-0.723-1-1.082-2.278-1.082z" inkscape:connector-curvature="0"/>
      <path id="path844" style="fill-rule:evenodd;fill:#994400" d="m125.75 148.42c-1.652-0.668-3.399-0.215-5.238 1.359-1.844 1.574-2.028 2.785-0.563 3.641 2.133 1.226 4.149 0.906 6.039-0.961 0.774-0.719 1.16-1.465 1.16-2.239 0.028-0.828-0.437-1.425-1.398-1.8z" inkscape:connector-curvature="0"/>
      <path id="path846" style="fill-rule:evenodd;fill:#994400" d="m108.95 147.62c-2.187-1.039-4.027-0.653-5.519 1.16-0.586 0.719-0.895 1.453-0.918 2.199 0 0.828 0.343 1.442 1.039 1.84 2.133 1.227 4.066 0.906 5.8-0.957 0.692-0.75 1.024-1.508 1-2.281 0-0.879-0.468-1.535-1.402-1.961z" inkscape:connector-curvature="0"/>
      <path id="path848" style="fill-rule:evenodd;fill:#994400" d="m42.152 145.42 0.082-2.321c-0.425-1.519-1.785-2.281-4.082-2.281-1.437 0-2.211 0.602-2.32 1.801-0.105 1.199 0.535 2.265 1.922 3.199 1.012 0.668 2.055 0.801 3.121 0.402 0.531-0.214 0.957-0.48 1.277-0.8z" inkscape:connector-curvature="0"/>
      <g id="g850">
        <g id="g852">
          <g id="g858">
            <path id="path866" style="fill-rule:evenodd;fill:url(#linearGradient860)" d="m64.035 161.14c-0.137-0.746-0.508-1.48-1.121-2.199-1.199-1.465-2.961-2.199-5.281-2.199-1.36 0-1.852 0.785-1.481 2.359 0.403 1.547 1.336 2.746 2.801 3.602 1.84 1.066 3.242 1.117 4.199 0.16 0.481-0.457 0.774-1.027 0.883-1.723z" inkscape:connector-curvature="0"/>
          </g>
        </g>
      </g>
      <g id="g868">
        <g id="g870">
          <g id="g876">
            <path id="path884" style="fill-rule:evenodd;fill:url(#linearGradient878)" d="m72.633 155.74c0.133-0.613 0.039-1.242-0.278-1.879-0.64-1.227-2.109-1.84-4.402-1.84-1.437 0-2.226 0.664-2.359 2-0.106 1.36 0.547 2.453 1.961 3.277 1.84 1.067 3.238 1.122 4.199 0.161 0.48-0.453 0.773-1.028 0.879-1.719z" inkscape:connector-curvature="0"/>
          </g>
        </g>
      </g>
      <g id="g886">
        <g id="g888">
          <g id="g894">
            <path id="path902" style="fill-rule:evenodd;fill:url(#linearGradient896)" d="m56.754 146.22c0-0.695-0.238-1.402-0.719-2.121-0.961-1.386-2.586-2.078-4.883-2.078-1.464 0-2.343 0.719-2.636 2.156-0.321 1.469 0.222 2.618 1.636 3.442 1.84 1.039 3.496 1.121 4.961 0.242 0.719-0.457 1.266-1 1.641-1.641z" inkscape:connector-curvature="0"/>
          </g>
        </g>
      </g>
      <g id="g904">
        <g id="g906">
          <g id="g912">
            <path id="path920" style="fill-rule:evenodd;fill:url(#linearGradient914)" d="m78.953 166.42c-0.105-0.215-0.453-0.414-1.039-0.602-1.148-0.398-2.867-0.598-5.16-0.598-1.465 0-2.254 0.293-2.359 0.879-0.133 0.586 0.519 1.293 1.96 2.121 1.84 1.039 3.493 1.051 4.957 0.039 0.723-0.507 1.27-1.121 1.641-1.839z" inkscape:connector-curvature="0"/>
          </g>
        </g>
      </g>
      <g id="g922">
        <g id="g924">
          <g id="g930">
            <path id="path938" style="fill-rule:evenodd;fill:url(#linearGradient932)" d="m91.152 154.22c-1.519 0-2.703 0.707-3.558 2.118-0.879 1.441-0.629 2.562 0.761 3.363 1.04 0.586 2.067 0.664 3.079 0.238 0.906-0.398 1.586-1.078 2.039-2.039 0.48-0.934 0.547-1.762 0.199-2.48-0.399-0.801-1.238-1.2-2.52-1.2z" inkscape:connector-curvature="0"/>
          </g>
        </g>
      </g>
      <g id="g940">
        <g id="g942">
          <g id="g948">
            <path id="path956" style="fill-rule:evenodd;fill:url(#linearGradient950)" d="m106.95 158.22c-1.574 0-2.984 0.575-4.238 1.719-1.309 1.199-1.293 2.188 0.039 2.961 1.039 0.586 2.148 0.707 3.32 0.359 1.012-0.32 1.852-0.906 2.52-1.761 0.64-0.797 0.851-1.532 0.64-2.2-0.242-0.718-1-1.078-2.281-1.078z" inkscape:connector-curvature="0"/>
          </g>
        </g>
      </g>
      <g id="g958">
        <g id="g960">
          <g id="g966">
            <path id="path974" style="fill-rule:evenodd;fill:url(#linearGradient968)" d="m126.36 149.82c-1.656-0.664-3.402-0.211-5.242 1.359-1.84 1.575-2.027 2.789-0.558 3.641 2.133 1.227 4.144 0.906 6.039-0.957 0.773-0.723 1.16-1.469 1.16-2.242 0.027-0.824-0.442-1.426-1.399-1.801z" inkscape:connector-curvature="0"/>
          </g>
        </g>
      </g>
      <g id="g976">
        <g id="g978">
          <g id="g984">
            <path id="path992" style="fill-rule:evenodd;fill:url(#linearGradient986)" d="m109.56 149.02c-2.188-1.043-4.028-0.656-5.52 1.156-0.586 0.723-0.894 1.454-0.922 2.204 0 0.824 0.348 1.437 1.039 1.839 2.137 1.227 4.067 0.907 5.801-0.961 0.695-0.746 1.027-1.507 1-2.281 0-0.879-0.465-1.531-1.398-1.957z" inkscape:connector-curvature="0"/>
          </g>
        </g>
      </g>
      <g id="g994">
        <g id="g996">
          <g id="g1002">
            <path id="path1010" style="fill-rule:evenodd;fill:url(#linearGradient1004)" d="m42.754 146.82 0.078-2.32c-0.426-1.52-1.785-2.278-4.078-2.278-1.442 0-2.215 0.598-2.32 1.801-0.106 1.199 0.535 2.266 1.921 3.199 1.012 0.664 2.051 0.801 3.118 0.399 0.535-0.215 0.961-0.481 1.281-0.801z" inkscape:connector-curvature="0"/>
          </g>
        </g>
      </g>
      <path id="path1012" style="fill-rule:evenodd;fill:#d9983c" d="m87.594 137.26-0.199-10.44c0.078-8.531 0.57-16.797 1.48-24.797 0.824-7.363 1.707-17.961 2.641-31.801 0.343-4.773 0.652-11.773 0.918-21-0.188-0.347-0.786-0.48-1.801-0.402-0.481 0.055-0.879 0.16-1.199 0.32l-0.321 0.2c-0.375 14.082-0.918 24.816-1.64 32.203-0.746 7.703-2.039 15.746-3.879 24.117-2.028 9.281-4.215 16.508-6.559 21.68-0.586 1.308-1.535 2.906-2.84 4.8l-1.761 2.442 1.8 1.32c1.735 0.961 3.973 1.598 6.719 1.918 2.32 0.27 4.121 0.254 5.402-0.039 0.637-0.16 1.051-0.332 1.239-0.52z" inkscape:connector-curvature="0"/>
      <path id="path1014" style="fill-rule:evenodd;fill:#8c5418" d="m74.195 132.14-1.761 2.442 1.8 1.32c1.735 0.961 3.973 1.598 6.719 1.918 2.32 0.27 4.121 0.254 5.402-0.039 0.637-0.16 1.051-0.332 1.239-0.52l-0.199-7.8c-1.122 0.347-2.243 0.281-3.36-0.2v-1l0.598-3.718c0.375-2.481 0.883-7.348 1.519-14.602l-0.679 5.52c-0.266 2.32-0.653 4.812-1.161 7.48l-1.277 5.762-1-0.801 0.758-3.922c0.828-4.211 1.855-10.613 3.082-19.199-0.453 1.602-0.961 4.586-1.52 8.961-0.589 4.348-1.64 8.519-3.16 12.519-0.269-1.171-0.254-2.535 0.039-4.082 0.106-0.586 1.145-5.464 3.121-14.636 1.758-8.297 2.797-13.68 3.118-16.16 0.562-4.747 1.281-15.856 2.16-33.321 0.082-1.496 0.105-3.387 0.082-5.679 0.051-1.629 0.398-2.629 1.039-3v4.16c0 1.199-0.16 4.293-0.481 9.277-0.371 5.977-0.601 9.84-0.679 11.602-0.106 2.668-0.332 5.679-0.68 9.039l-0.68 7.761 1.161-8.761c0.132-1.52 0.32-4.895 0.558-10.121l0.32 0.683c0.145 0.324 0.196 1.727 0.161 4.199 0.105-2.242 0.238-5.976 0.398-11.199 0.215-6.375 0.309-10.215 0.281-11.523-0.054-1.84 0.028-3.625 0.242-5.36 0.266-0.027 0.625 0 1.079 0.082-0.188-0.347-0.786-0.48-1.801-0.402-0.481 0.055-0.879 0.16-1.199 0.32l-0.321 0.2c-0.375 14.082-0.918 24.816-1.64 32.203-0.746 7.703-2.039 15.746-3.879 24.117-2.028 9.281-4.215 16.508-6.559 21.68-0.586 1.308-1.535 2.906-2.84 4.8z" inkscape:connector-curvature="0"/>
      <path id="path1016" style="fill-rule:evenodd;fill:#ffc26b" d="m84.715 127.86c-0.11 0.746 0.051 1.16 0.48 1.238 0.371 0.106 0.758-0.148 1.16-0.761 0.161-0.239 0.266-2.293 0.317-6.161 0.055-2.105 0.109-4.972 0.16-8.597 0.047-2.106 0.352-6.418 0.922-12.942-0.145 1.063-0.356 2.578-0.641 4.539-0.531 3.524-0.851 6.055-0.961 7.602-0.132 1.894-0.386 4.746-0.757 8.559-0.321 3.386-0.547 5.562-0.68 6.523z" inkscape:connector-curvature="0"/>
      <path id="path1018" style="fill-rule:evenodd;fill:#ffc26b" d="m83.395 118.34 0.238-1.84c0.242-1.36 0.48-2.438 0.722-3.239 0.372-1.253 1.04-5.253 2-12l-0.882 3.442c-0.746 2.851-1.321 5.094-1.719 6.719-0.774 2.984-1.215 4.945-1.32 5.878-0.133 1.094-0.079 1.723 0.16 1.879 0.215 0.137 0.48-0.144 0.801-0.839z" inkscape:connector-curvature="0"/>
      <path id="path1020" style="fill-rule:evenodd;fill:#ffc26b" d="m89.953 72.34c0 1.976-0.051 3.601-0.16 4.882l-1.238 13.161 0.84-4.641c0.585-3.442 0.972-5.973 1.16-7.602 0.293-2.293 0.425-3.746 0.398-4.359-0.055-0.961-0.387-1.441-1-1.441z" inkscape:connector-curvature="0"/>
    </g>
  </g>
<metadata><rdf:RDF><cc:Work><dc:format>image/svg+xml</dc:format><dc:type rdf:resource="http://purl.org/dc/dcmitype/StillImage"/><cc:license rdf:resource="http://creativecommons.org/licenses/publicdomain/"/><dc:publisher><cc:Agent rdf:about="http://openclipart.org/"><dc:title>Openclipart</dc:title></cc:Agent></dc:publisher></cc:Work><cc:License rdf:about="http://creativecommons.org/licenses/publicdomain/"><cc:permits rdf:resource="http://creativecommons.org/ns#Reproduction"/><cc:permits rdf:resource="http://creativecommons.org/ns#Distribution"/><cc:permits rdf:resource="http://creativecommons.org/ns#DerivativeWorks"/></cc:License></rdf:RDF></metadata></svg>
